<svg viewBox="0 0 48 48" xmlns="http://www.w3.org/2000/svg" xml:space="preserve" fill-rule="evenodd" clip-rule="evenodd" stroke-linecap="round" stroke-linejoin="round" stroke-miterlimit="1.5"><path d="M43 7.57c0-1.418-37-1.418-37 0l4.038.43L12 41.43A2.572 2.572 0 0 0 14.57 44h19.86A2.572 2.572 0 0 0 37 41.43L38.944 8 43 7.57Z" fill="none" stroke="#000" stroke-width="3.08" transform="matrix(1.13514 0 0 1.0241 -3.81 .187)"/><path d="M24 14v24" fill="none" stroke="#000" stroke-width="2.31" transform="matrix(1.13514 0 0 1.0241 -3.243 .187)"/><path d="m25 14-1 24" fill="none" stroke="#000" stroke-width="2.31" transform="matrix(1.13514 0 0 1.0241 4.135 .187)"/><path d="m23 14 1 24" fill="none" stroke="#000" stroke-width="2.31" transform="matrix(1.13514 0 0 1.0241 -11.19 .187)"/><path d="m18 5 1-4h11l1 4" fill="none" stroke="#000" stroke-width="2.31" transform="matrix(1.13514 0 0 1.0241 -3.81 1.729)"/></svg>