<?xml version="1.0" standalone="no"?>
<!DOCTYPE svg PUBLIC "-//W3C//DTD SVG 20010904//EN"
 "http://www.w3.org/TR/2001/REC-SVG-20010904/DTD/svg10.dtd">
<svg version="1.0" xmlns="http://www.w3.org/2000/svg"
 width="700.000000pt" height="700.000000pt" viewBox="0 0 700.000000 700.000000"
 preserveAspectRatio="xMidYMid meet">
<metadata>
Created by potrace 1.14, written by Peter Selinger 2001-2017
</metadata>
<g transform="translate(0.000000,700.000000) scale(0.100000,-0.100000)"
fill="#000000" stroke="none">
<path d="M2488 5955 c-37 -19 -147 -62 -245 -95 l-178 -60 -3 -38 c-3 -36 0
-41 57 -85 106 -82 96 71 96 -1412 0 -1232 -1 -1302 -18 -1333 -17 -31 -46
-49 -112 -69 -36 -10 -54 -50 -39 -89 l9 -26 345 0 345 -1 9 36 c12 47 -10 82
-57 91 -49 9 -85 52 -97 115 -15 81 -13 1122 2 1174 17 56 103 139 186 178 86
41 201 51 287 24 74 -24 154 -96 190 -171 51 -109 55 -149 55 -679 0 -615 2
-606 -119 -645 -55 -18 -76 -52 -61 -96 l10 -29 356 1 c383 2 374 0 374 54 0
39 -12 49 -81 73 -109 37 -103 0 -110 672 -6 632 -5 619 -76 764 -44 91 -141
192 -228 238 -153 80 -344 85 -511 12 -60 -26 -164 -93 -222 -142 -24 -21 -48
-34 -54 -31 -6 4 -9 282 -7 793 2 433 -1 792 -5 799 -11 18 -24 15 -98 -23z"/>
<path d="M537 4644 c-37 -24 -236 -116 -363 -166 -54 -22 -59 -27 -62 -57 -3
-29 4 -40 56 -90 41 -39 63 -69 71 -97 14 -49 15 -2939 1 -2998 -12 -52 -39
-78 -102 -96 -63 -19 -88 -52 -73 -96 l10 -27 355 0 355 0 9 25 c14 40 0 74
-36 88 -78 28 -98 41 -115 72 -17 31 -18 107 -18 1478 l0 1445 27 50 c69 131
217 205 383 192 164 -12 271 -115 305 -292 8 -42 10 -217 8 -585 -3 -472 -5
-528 -20 -556 -17 -31 -70 -64 -103 -64 -24 0 -47 -62 -35 -97 l10 -28 345 2
c190 1 349 4 355 8 5 3 10 23 10 44 0 38 -23 71 -49 71 -32 0 -81 34 -98 68
-17 34 -18 82 -23 617 l-5 580 -28 78 c-54 154 -160 281 -288 344 -81 40 -135
52 -229 53 -136 0 -260 -46 -441 -164 -128 -84 -128 -84 -131 89 -3 122 -4
130 -23 132 -11 1 -37 -9 -58 -23z"/>
<path d="M4485 4649 c-40 -27 -130 -70 -295 -139 -134 -57 -135 -57 -138 -91
-3 -31 3 -40 49 -79 97 -82 94 -58 97 -649 2 -282 -1 -565 -7 -629 -11 -139
-22 -158 -106 -187 -66 -23 -83 -46 -69 -96 l9 -31 350 0 350 0 8 29 c14 46
-6 80 -52 93 -64 17 -98 52 -111 114 -7 36 -10 227 -8 592 3 529 3 540 25 586
30 66 102 134 181 171 61 29 75 32 167 32 90 0 106 -3 158 -29 73 -35 127
-101 159 -193 l23 -68 0 -550 c0 -587 -1 -600 -49 -628 -11 -7 -41 -19 -66
-27 -51 -17 -71 -51 -54 -96 l9 -26 355 0 355 0 9 31 c13 45 -10 72 -80 96
-84 29 -94 51 -106 228 -5 78 -8 333 -5 567 3 374 6 431 22 473 25 69 103 150
183 189 63 31 73 33 172 33 90 -1 112 -4 154 -25 62 -30 109 -77 142 -141 55
-109 54 -87 54 -1549 0 -955 -3 -1364 -11 -1401 -13 -59 -44 -94 -92 -104 -55
-12 -77 -32 -77 -69 0 -65 -23 -61 371 -60 402 1 388 -2 375 69 -6 29 -12 34
-54 44 -104 26 -130 56 -143 162 -4 41 -8 691 -9 1445 0 1332 -1 1373 -20
1448 -49 194 -192 352 -368 406 -78 24 -193 26 -277 5 -90 -23 -228 -96 -340
-179 -55 -41 -107 -75 -115 -76 -9 0 -35 27 -59 59 -123 170 -362 251 -576
196 -83 -22 -205 -84 -300 -154 -111 -81 -114 -79 -117 92 -3 124 -4 132 -23
134 -11 1 -33 -7 -50 -18z"/>
<path d="M1360 1545 l0 -525 490 0 490 0 0 525 0 525 -490 0 -490 0 0 -525z"/>
<path d="M3007 2063 c-4 -3 -7 -240 -7 -525 l0 -518 495 0 495 0 0 525 0 525
-488 0 c-269 0 -492 -3 -495 -7z"/>
<path d="M4650 1545 l0 -525 495 0 495 0 0 525 0 525 -495 0 -495 0 0 -525z"/>
</g>
</svg>
