<?xml version="1.0" encoding="UTF-8" standalone="no"?>
<!DOCTYPE svg PUBLIC "-//W3C//DTD SVG 1.1//EN" "http://www.w3.org/Graphics/SVG/1.1/DTD/svg11.dtd">
<svg width="100%" height="100%" viewBox="0 0 56 24" version="1.1" xmlns="http://www.w3.org/2000/svg" xmlns:xlink="http://www.w3.org/1999/xlink" xml:space="preserve" xmlns:serif="http://www.serif.com/" style="fill-rule:evenodd;clip-rule:evenodd;stroke-linejoin:round;stroke-miterlimit:2;">
    <g transform="matrix(1,0,0,1,-285,-22)">
        <path d="M340.34,37.75L340,37.75L340,38.09L340.34,38.09L340.34,37.75ZM339.48,38.1L339.48,37.87L339.34,37.87C339.17,37.87 339.1,37.77 339.1,37.61L339.1,36.52L339.48,36.52L339.48,36.32L339.1,36.32L339.1,35.76L338.84,35.76L338.84,36.32L338.62,36.32L338.62,36.52L338.84,36.52L338.84,37.62C338.84,37.88 338.99,38.1 339.3,38.1L339.48,38.1ZM338.28,38.09L337.57,36.99L338.18,36.31L337.85,36.31L337.04,37.24L337.04,35.51L336.78,35.51L336.78,38.09L337.04,38.09L337.04,37.57L337.39,37.17L337.96,38.08L338.28,38.08L338.28,38.09ZM336.36,36.45C336.23,36.32 336.1,36.28 335.93,36.28C335.72,36.28 335.53,36.37 335.43,36.52L335.43,36.3L335.17,36.3L335.17,38.08L335.43,38.08L335.43,37C335.43,36.73 335.6,36.52 335.86,36.52C336,36.52 336.07,36.55 336.17,36.65L336.36,36.45ZM334.53,36.31L334.27,36.31L334.27,38.1L334.53,38.1L334.53,36.31ZM334.55,35.51L334.26,35.51L334.26,35.8L334.55,35.8L334.55,35.51ZM333.83,36.31L333.55,36.31L333.14,37.74L332.67,36.31L332.45,36.31L331.98,37.74L331.57,36.31L331.29,36.31L331.86,38.09L332.1,38.09L332.56,36.7L333.03,38.09L333.27,38.09L333.83,36.31ZM329.68,37.19C329.68,37.52 329.63,37.86 329.24,37.86C328.85,37.86 328.79,37.53 328.79,37.19C328.79,36.86 328.85,36.52 329.24,36.52C329.62,36.52 329.68,36.85 329.68,37.19M329.94,38.15L329.94,36.31L329.68,36.31L329.68,36.52C329.53,36.33 329.38,36.29 329.18,36.29C329,36.29 328.84,36.35 328.74,36.45C328.56,36.63 328.52,36.9 328.52,37.19C328.52,37.48 328.56,37.76 328.74,37.93C328.83,38.02 328.99,38.09 329.17,38.09C329.36,38.09 329.53,38.04 329.67,37.86L329.67,38.14C329.67,38.44 329.52,38.69 329.18,38.69C328.97,38.69 328.88,38.63 328.75,38.51L328.58,38.68C328.77,38.85 328.92,38.92 329.19,38.92C329.66,38.91 329.94,38.59 329.94,38.15M327.98,38.09L327.98,36.95C327.98,36.74 327.92,36.58 327.8,36.45C327.69,36.34 327.54,36.28 327.34,36.28C327.14,36.28 326.97,36.35 326.84,36.5L326.84,36.3L326.58,36.3L326.58,38.08L326.84,38.08L326.84,36.98C326.84,36.67 327.01,36.5 327.28,36.5C327.55,36.5 327.72,36.66 327.72,36.98L327.72,38.08L327.98,38.08L327.98,38.09ZM325.93,38.1L325.93,36.31L325.67,36.31L325.67,37.41C325.67,37.72 325.49,37.89 325.22,37.89C324.95,37.89 324.78,37.73 324.78,37.41L324.78,36.31L324.52,36.31L324.52,37.45C324.52,37.66 324.57,37.83 324.7,37.95C324.81,38.06 324.97,38.12 325.16,38.12C325.36,38.12 325.54,38.04 325.66,37.9L325.66,38.1L325.93,38.1ZM323.92,38.09L323.92,36.94C323.92,36.54 323.68,36.28 323.28,36.28C323.08,36.28 322.91,36.35 322.78,36.5L322.78,35.51L322.52,35.51L322.52,38.09L322.78,38.09L322.78,36.99C322.78,36.68 322.96,36.52 323.23,36.52C323.5,36.52 323.67,36.68 323.67,36.99L323.67,38.09L323.92,38.09ZM322.01,37.85L321.83,37.68C321.7,37.83 321.59,37.88 321.42,37.88C321.25,37.88 321.1,37.81 321.01,37.68C320.93,37.56 320.89,37.43 320.89,37.2C320.89,36.98 320.92,36.84 321.01,36.72C321.1,36.59 321.25,36.52 321.42,36.52C321.59,36.52 321.7,36.57 321.83,36.72L322.01,36.55C321.82,36.35 321.67,36.29 321.42,36.29C320.97,36.29 320.63,36.59 320.63,37.2C320.63,37.81 320.97,38.11 321.42,38.11C321.67,38.11 321.83,38.05 322.01,37.85M320.19,37.57C320.19,37.24 319.98,37.12 319.66,37.09L319.37,37.06C319.15,37.04 319.06,36.95 319.06,36.8C319.06,36.62 319.2,36.51 319.46,36.51C319.64,36.51 319.81,36.55 319.94,36.65L320.11,36.48C319.95,36.35 319.72,36.29 319.47,36.29C319.09,36.29 318.81,36.49 318.81,36.81C318.81,37.1 319,37.26 319.34,37.29L319.63,37.32C319.84,37.34 319.93,37.43 319.93,37.58C319.93,37.79 319.75,37.9 319.45,37.9C319.23,37.9 319.04,37.84 318.89,37.69L318.72,37.86C318.92,38.05 319.15,38.12 319.45,38.12C319.89,38.11 320.19,37.91 320.19,37.57M318.48,36.45C318.35,36.32 318.22,36.28 318.05,36.28C317.84,36.28 317.65,36.37 317.55,36.52L317.55,36.3L317.29,36.3L317.29,38.08L317.55,38.08L317.55,37C317.55,36.73 317.72,36.52 317.98,36.52C318.12,36.52 318.19,36.55 318.29,36.65L318.48,36.45ZM316.47,37.2C316.47,37.4 316.46,37.62 316.33,37.75C316.25,37.83 316.13,37.88 316,37.88C315.87,37.88 315.76,37.83 315.68,37.75C315.55,37.62 315.53,37.4 315.53,37.2C315.53,37 315.54,36.78 315.68,36.65C315.76,36.57 315.88,36.52 316,36.52C316.13,36.52 316.24,36.57 316.33,36.65C316.46,36.78 316.47,37 316.47,37.2M316.73,37.2C316.73,36.92 316.69,36.67 316.51,36.49C316.39,36.37 316.22,36.29 316,36.29C315.78,36.29 315.61,36.37 315.49,36.49C315.31,36.67 315.27,36.93 315.27,37.2C315.27,37.48 315.31,37.73 315.49,37.91C315.61,38.03 315.78,38.11 316,38.11C316.22,38.11 316.39,38.03 316.51,37.91C316.69,37.73 316.73,37.48 316.73,37.2M314.92,35.76L314.92,35.51L313.32,35.51L313.32,38.09L313.6,38.09L313.6,36.95L314.73,36.95L314.73,36.7L313.6,36.7L313.6,35.75L314.92,35.75L314.92,35.76Z" style="fill-rule:nonzero;"/>
        <path d="M339.43,28.89L339.43,27.33L335.4,27.33L335.4,29.07L337.36,29.07L337.36,29.47C337.36,30.02 337.23,30.5 336.88,30.89C336.54,31.26 336.03,31.49 335.4,31.49C334.83,31.49 334.37,31.28 334.07,30.94C333.67,30.49 333.56,29.98 333.56,27.93C333.56,25.88 333.66,25.38 334.07,24.93C334.37,24.59 334.83,24.36 335.4,24.36C336.46,24.36 337.08,24.91 337.32,25.92L339.42,25.92C339.14,24.12 337.88,22.5 335.4,22.5C334.2,22.5 333.27,22.92 332.52,23.67C331.44,24.75 331.47,26.08 331.47,27.93C331.47,29.77 331.44,31.11 332.52,32.19C333.27,32.94 334.23,33.36 335.4,33.36C336.54,33.36 337.56,33.03 338.41,32.15C339.16,31.36 339.43,30.43 339.43,28.89M329.72,24.46L329.72,22.59L322.69,22.59L322.69,33.27L324.77,33.27L324.77,28.94L328.98,28.94L328.98,27.08L324.77,27.08L324.77,24.46L329.72,24.46ZM320.35,24.46L320.35,22.59L313.32,22.59L313.32,33.27L315.4,33.27L315.4,28.94L319.61,28.94L319.61,27.08L315.4,27.08L315.4,24.46L320.35,24.46Z" style="fill-rule:nonzero;"/>
        <path d="M297.09,24.92C297.09,24.92 298.2,23.66 299.97,22.98C301.73,22.29 303.2,22.51 303.73,22.94C304.27,23.38 304.81,24.21 303.76,25.88C302.71,27.54 302.18,27.54 301.87,28.34C301.56,29.14 301.62,29.61 302.24,29.98C302.86,30.35 303.93,30.03 304.3,29.89C304.67,29.75 306.7,29.33 308.23,30.06C309.76,30.78 309.82,31.89 309.35,33.18C308.88,34.46 307.61,35.66 306.62,36.4C305.63,37.15 303.81,37.97 302.07,38.17C300.72,38.33 299.56,38.22 298.89,37.92C298.22,37.62 297.77,37.54 296.62,38.1C295.47,38.65 294.63,39.15 294.36,39.74C294.08,40.33 293.83,41.54 292.51,42.77C291.19,44 288.98,44.68 287.56,44.74C286.13,44.79 285.25,43.96 285.16,43.02C285.07,42.08 285.47,41.12 286.55,39.98C287.63,38.84 289.01,38.2 290.23,37.89C291.45,37.58 292.27,37.6 292.98,37.81C293.38,37.93 293.84,38.32 294.57,38.1C295.42,37.84 296.46,37.46 297.02,36.89C297.58,36.32 297.75,35.88 297.86,35.38C297.97,34.88 298.54,33.73 299.37,32.87C300.2,32.01 300.77,31.68 300.93,31C301.1,30.32 301.04,29.84 300.54,29.58C300.04,29.33 299.44,29.38 298.3,29.73C297.16,30.09 295.61,29.63 295.44,28.49C295.27,27.34 295.84,26.23 297.09,24.92Z" style="fill:rgb(225,5,45);fill-rule:nonzero;"/>
    </g>
    <g id="ArtBoard1" transform="matrix(1.0375,0,0,0.853049,-290.499,-12.6081)">
        <rect x="280" y="14.78" width="53.34" height="27.22" style="fill:none;"/>
    </g>
</svg>
