<svg viewBox="0 0 139 38" xmlns="http://www.w3.org/2000/svg" fill-rule="evenodd" stroke-linejoin="round" clip-rule="evenodd" stroke-miterlimit="2"><g transform="translate(-136-242)" fill-rule="nonzero"><g fill="#941e1d"><path d="m145.82 279.78h7.342v-7.823h-7.342v7.823"/><path d="m158.06 279.78h7.341v-7.823h-7.341v7.823"/><path d="m170.31 279.78h7.342v-7.823h-7.342v7.823"/></g><path d="m137.63 276.01c0 2.41-.028 2.75-1.077 2.891l-.227.114c-.198.17-.141.737.029.822.794-.057 1.927-.085 2.948-.085.964 0 1.446.028 2.211.085.198-.085.255-.652.057-.822l-.17-.114c-1.021-.198-1.078-.481-1.078-2.891v-17.972c0-.992.057-1.445.426-2.01.396-.624 1.332-1.163 2.409-1.163 1.899 0 2.636 1.389 2.636 3.289v4.989c0 2.409-.028 2.693-1.077 2.891l-.057.113c-.198.17-.141.737.057.822.766-.056 1.928-.085 2.948-.085.964 0 1.276.029 2.126.085.199-.085.255-.652.057-.822l-.113-.113c-1.021-.17-1.078-.482-1.078-2.891v-5.755c0-2.239-1.729-4.337-4.082-4.337-1.417 0-2.749.851-3.94 1.701-.198 0-.312-.17-.312-.369 0-.283 0-.793.057-1.559-.057-.17-.198-.226-.312-.226-.538.482-2.778 1.36-3.43 1.615-.141.114-.141.482-.028.624l.255.198c.765.596.765.964.765 2.268v18.709m14.627-12.869c0 2.409-.028 2.749-1.048 2.891l-.199.113c-.198.17-.142.737.057.822.907-.056 1.389-.085 2.409-.085.992 0 1.729.029 2.58.085.198-.085.255-.708.057-.822l-.057-.113c-1.021-.17-1.077-.482-1.077-2.891v-5.613c0-1.162.085-1.332.595-1.843.51-.481 1.219-.907 2.183-.907 1.814 0 2.664 1.446 2.664 3.572v4.791c0 2.409-.028 2.693-1.049 2.891l-.226.113c-.199.17-.142.737.056.822.766-.056 1.616-.085 2.608-.085.992 0 1.559.029 2.58.085.198-.085.255-.652.057-.822l-.227-.113c-1.021-.142-1.077-.482-1.077-2.891v-5.585c0-2.324-1.588-4.507-4.252-4.507-1.446 0-2.778.822-3.799 1.758-.085-.085-.113-.34-.113-.652v-7c0-1.474.056-3.146.085-4.139-.057-.141-.17-.198-.284-.198-1.02.624-2.948 1.134-3.656 1.389-.142.113-.142.567 0 .68l.283.199c.822.595.85.793.85 2.778v15.279m30.813 12.869c0 2.41-.028 2.693-1.077 2.891l-.17.114c-.198.17-.142.737.057.822.794-.057 1.559-.085 2.579-.085.964 0 1.73.028 2.665.085.198-.085.227-.652.057-.822l-.34-.114c-1.021-.141-1.078-.481-1.078-2.891v-18.624c0-2.296-1.729-4.337-3.968-4.337-1.332 0-2.693.766-3.827 1.701-.255.198-.595.482-.709.283-.793-1.389-2.182-1.984-3.6-1.984-1.36 0-2.664.822-3.742 1.701-.198 0-.311-.17-.311-.369 0-.283 0-.793.056-1.559-.056-.17-.198-.226-.311-.226-.567.482-2.778 1.36-3.43 1.615-.142.114-.142.482-.029.624l.255.198c.766.596.766.964.766 2.268v5.84c0 2.409-.029 2.721-1.077 2.891l-.171.113c-.198.17-.141.737.057.822.879-.056 1.389-.085 2.381-.085.992 0 1.928.029 2.665.085.198-.085.255-.652.057-.822l-.142-.113c-1.021-.198-1.077-.482-1.077-2.891v-5.188c0-1.049.141-1.502.425-1.899.425-.595 1.219-1.191 2.353-1.191 1.757 0 2.608 1.191 2.608 3.43v4.848c0 2.409-.029 2.693-1.078 2.891l-.17.113c-.198.17-.141.737.057.822.794-.056 1.843-.085 2.835-.085.992 0 1.474.029 2.324.085.17-.085.227-.652.028-.822l-.226-.113c-1.021-.17-1.077-.482-1.077-2.891v-5.103c0-1.19.085-1.502.425-2.01.397-.596 1.275-1.163 2.324-1.163 1.786 0 2.636 1.163 2.636 3.43v17.717" fill="#565655"/><path d="m195.54 267v-3.912c0-.992-.397-1.786-1.701-1.786-.964 0-1.672.539-1.984 1.361l-.028-.029c.056-.34.085-.878.085-1.219h-.822v5.585h.85v-2.693c0-1.332.709-2.325 1.701-2.325.794 0 1.049.511 1.049 1.389v3.629h.85m79.17-1.588v-.17c-.114-1.786-2.75-1.077-2.75-2.381 0-.567.425-.907 1.247-.907.369 0 .794.085 1.163.199v-.738c-.341-.056-.737-.113-1.078-.113-1.417 0-2.182.709-2.182 1.644 0 1.984 2.721 1.134 2.721 2.495 0 .595-.567.935-1.361.935-.453 0-.907-.085-1.247-.17l-.028.765c.34.086.765.114 1.162.114 1.417 0 2.296-.709 2.353-1.673m-73.45 1.588v-3.884c0-1.049-.453-1.814-1.984-1.814-.766 0-1.418.17-1.928.425l.057.737c.51-.311 1.19-.482 1.729-.482.964 0 1.276.454 1.276 1.304v.454c-2.183 0-3.402.822-3.402 1.984 0 .907.624 1.361 1.531 1.361.935 0 1.672-.567 1.927-1.276h.029c-.057.34-.057.766-.057 1.191h.822m-.85-2.551c0 .992-.652 1.956-1.644 1.956-.567 0-.936-.312-.936-.823 0-.538.454-1.218 2.58-1.218v.085m5.697 2.522v-.737c-.226.057-.51.114-.793.114-.681 0-.851-.255-.851-1.276v-3.01h1.644v-.652h-1.644v-2.097l-.85.227v1.87h-1.191v.652h1.191v3.374c0 1.134.34 1.644 1.474 1.644.34 0 .737-.057 1.02-.114m5.868.029v-5.585h-.85v2.665c0 1.332-.709 2.325-1.701 2.325-.822 0-1.049-.511-1.049-1.389v-3.601h-.85v3.884c0 .992.397 1.814 1.672 1.814.992 0 1.701-.567 2.01-1.36h.028c-.057.34-.085.878-.085 1.247h.822m4.649-5.698c-1.162-.142-1.757.709-1.984 1.502.085-.481.113-1.02.113-1.389h-.822v5.585h.851v-2.24c0-1.899.566-2.834 1.814-2.636l.028-.822m5.783 5.698v-3.912c0-.992-.397-1.786-1.673-1.786-.963 0-1.672.51-1.984 1.332h-.028c.056-.283.085-.737.085-1.133v-2.722h-.851v8.221h.851v-2.693c0-1.332.708-2.325 1.701-2.325.822 0 1.048.511 1.048 1.389v3.629h.851m2.948-7.172c0-.34-.255-.595-.567-.595-.34 0-.595.255-.595.595 0 .312.255.567.595.567.312 0 .567-.255.567-.567m-.17 1.587h-.851v5.585h.851v-5.585m5.131 3.912c0-1.899-2.722-1.134-2.722-2.466 0-.567.397-.907 1.219-.907.397 0 .794.085 1.162.199l.029-.738c-.34-.056-.737-.113-1.106-.113-1.417 0-2.154.709-2.154 1.644 0 1.984 2.721 1.134 2.721 2.495 0 .595-.567.935-1.389.935-.425 0-.879-.085-1.247-.17l-.028.765c.34.086.765.114 1.19.114 1.474 0 2.325-.766 2.325-1.758m4.563 1.644v-.737c-.226.057-.538.114-.793.114-.681 0-.851-.255-.851-1.276v-3.01h1.644v-.652h-1.644v-2.097l-.85.227v1.87h-1.219v.652h1.219v3.374c0 1.134.34 1.644 1.446 1.644.368 0 .737-.057 1.048-.114m6.04-2.863c0-2.041-1.105-2.806-2.466-2.806-1.672 0-2.664 1.332-2.664 2.92 0 1.956.963 2.863 2.466 2.863 1.644 0 2.664-1.332 2.664-2.977m-.878.057c0 1.531-.794 2.211-1.673 2.211-1.077 0-1.701-.794-1.701-2.211 0-1.502.822-2.154 1.701-2.154 1.134 0 1.673.793 1.673 2.154m5.159-2.863c-1.163-.142-1.758.709-1.985 1.502.057-.481.114-1.02.114-1.389h-.822v5.585h.822v-2.24c0-1.899.595-2.834 1.842-2.636l.029-.822m2.352-1.474c0-.34-.283-.595-.595-.595-.34 0-.595.255-.595.595 0 .312.255.567.595.567.312 0 .595-.255.595-.567m-.17 1.587h-.85v5.585h.85v-5.585m5.131 3.912c0-1.899-2.749-1.134-2.749-2.466 0-.567.425-.907 1.247-.907.368 0 .765.085 1.162.199v-.738c-.34-.056-.737-.113-1.077-.113-1.418 0-2.183.709-2.183 1.644 0 1.984 2.721 1.134 2.721 2.495 0 .595-.567.935-1.389.935-.425 0-.878-.085-1.247-.17v.765c.34.086.766.114 1.162.114 1.474 0 2.353-.766 2.353-1.758m5.301 1.418l-.085-.709c-.369.17-.907.312-1.389.312-1.361 0-1.729-.964-1.729-2.098 0-1.36.595-2.239 1.814-2.239.482 0 .907.085 1.276.255l.085-.765c-.397-.114-.851-.171-1.304-.171-1.814 0-2.75 1.219-2.75 3.062 0 2.126 1.162 2.665 2.41 2.665.708 0 1.304-.142 1.672-.312m5.839.255v-3.912c0-.992-.396-1.786-1.672-1.786-.992 0-1.672.51-2.01 1.332.057-.283.085-.737.085-1.133v-2.722h-.85v8.221h.85v-2.693c0-1.332.709-2.325 1.701-2.325.822 0 1.049.511 1.049 1.389v3.629h.85m6.208-3.402c0-1.219-.652-2.296-2.182-2.296-1.559 0-2.466 1.247-2.466 2.92 0 1.956.907 2.863 2.579 2.863.709 0 1.332-.114 1.843-.34l-.057-.709c-.425.227-1.049.369-1.644.369-1.247 0-1.899-.709-1.843-2.382h3.742c.028-.17.028-.311.028-.425m-.878-.198h-2.835c.113-.879.68-1.446 1.474-1.446.85 0 1.361.567 1.361 1.446"/><path d="m198.97 279.84v-3.884c0-1.275-.595-1.814-1.644-1.814-1.134 0-1.758.794-1.956 1.333 0-.426-.284-1.333-1.559-1.333-.907 0-1.644.539-1.956 1.361l-.028-.028c.056-.341.085-.879.085-1.219h-.822v5.584h.85v-2.665c0-1.389.737-2.352 1.672-2.352.851 0 .993.623.993 1.389v3.628h.85v-2.665c0-1.445.822-2.352 1.672-2.352.794 0 1.021.566 1.021 1.389v3.628h.822m6.378 0v-5.584h-.822v2.664c0 1.333-.709 2.325-1.729 2.325-.794 0-1.049-.511-1.049-1.389v-3.6h-.822v3.883c0 .992.397 1.814 1.672 1.814.964 0 1.673-.567 1.985-1.36h.028c-.057.34-.085.878-.085 1.247h.822m5.188-1.673c0-1.899-2.75-1.133-2.75-2.466 0-.567.425-.907 1.247-.907.369 0 .765.085 1.162.199v-.737c-.34-.057-.737-.114-1.077-.114-1.417 0-2.183.709-2.183 1.644 0 1.985 2.722 1.134 2.722 2.495 0 .595-.567.935-1.389.935-.425 0-.879-.056-1.248-.17v.766c.341.085.766.113 1.163.113 1.474 0 2.353-.765 2.353-1.758m5.839-1.729c0-1.219-.652-2.296-2.183-2.296-1.559 0-2.438 1.247-2.438 2.92 0 1.956.879 2.863 2.58 2.863.68 0 1.332-.113 1.843-.34l-.086-.709c-.425.227-1.02.369-1.615.369-1.248 0-1.9-.709-1.843-2.381h3.714c.028-.171.028-.312.028-.426m-.879-.198h-2.834c.141-.879.708-1.446 1.474-1.446.878 0 1.389.567 1.36 1.446m6.86 3.6v-5.584h-.85v2.664c0 1.333-.709 2.325-1.701 2.325-.794 0-1.049-.511-1.049-1.389v-3.6h-.85v3.883c0 .992.397 1.814 1.7 1.814.964 0 1.673-.567 1.985-1.36h.028c-.057.34-.085.878-.085 1.247h.822m9.865 0v-3.884c0-1.275-.624-1.814-1.673-1.814-1.134 0-1.729.794-1.927 1.333-.029-.426-.284-1.333-1.559-1.333-.936 0-1.673.539-1.985 1.361l-.028-.028c.085-.341.113-.879.113-1.219h-.85v5.584h.85v-2.665c0-1.389.766-2.352 1.673-2.352.85 0 1.02.623 1.02 1.389v3.628h.822v-2.665c0-1.445.823-2.352 1.673-2.352.822 0 1.02.566 1.02 1.389v3.628h.851m12.614-5.584h-.907l-.992 3.316c-.17.595-.284.936-.397 1.389-.113-.368-.198-.708-.425-1.389l-1.077-3.316h-.936l-1.077 3.316c-.142.454-.283.936-.397 1.361-.085-.369-.227-.879-.397-1.361l-.935-3.316h-.964l1.729 5.584h.992l1.021-3.288c.142-.454.283-.907.397-1.389h.028c.085.368.199.708.312 1.049l1.219 3.628h.992l1.814-5.584m2.325-1.588c0-.312-.284-.595-.596-.595-.311 0-.567.283-.567.595 0 .312.256.567.567.567.312 0 .596-.255.596-.567m-.17 1.588h-.851v5.584h.851v-5.584m6.179 2.182c0-1.219-.623-2.296-2.183-2.296-1.53 0-2.437 1.247-2.437 2.92 0 1.956.907 2.863 2.579 2.863.709 0 1.332-.113 1.843-.34l-.085-.709c-.397.227-1.021.369-1.616.369-1.247 0-1.899-.709-1.843-2.381h3.714c.028-.171.028-.312.028-.426m-.879-.198h-2.834c.141-.879.708-1.446 1.502-1.446.85 0 1.361.567 1.332 1.446m6.917 3.6v-3.912c0-.992-.397-1.786-1.672-1.786-.993 0-1.701.539-2.01 1.361l-.028-.028c.056-.341.085-.879.085-1.219h-.822v5.584h.85v-2.693c0-1.332.709-2.324 1.701-2.324.822 0 1.049.51 1.049 1.389v3.628h.85"/></g></svg>