<?xml version="1.0" encoding="UTF-8" standalone="no"?>
<!DOCTYPE svg PUBLIC "-//W3C//DTD SVG 1.1//EN" "http://www.w3.org/Graphics/SVG/1.1/DTD/svg11.dtd">
<svg width="100%" height="100%" viewBox="0 0 52 38" version="1.1" xmlns="http://www.w3.org/2000/svg" xmlns:xlink="http://www.w3.org/1999/xlink" xml:space="preserve" xmlns:serif="http://www.serif.com/" style="fill-rule:evenodd;clip-rule:evenodd;stroke-linejoin:round;stroke-miterlimit:2;">
    <g id="ArtBoard1" transform="matrix(0.393939,0,0,0.808511,-52,-193.234)">
        <rect x="132" y="239" width="132" height="47" style="fill:none;"/>
        <g id="Ebene_x0020_1" transform="matrix(2.53846,0,0,1.23684,-213.231,-60.3158)">
            <path d="M145.819,279.783L153.161,279.783L153.161,271.96L145.819,271.96L145.819,279.783Z" style="fill:rgb(148,30,29);fill-rule:nonzero;"/>
            <path d="M158.065,279.783L165.406,279.783L165.406,271.96L158.065,271.96L158.065,279.783Z" style="fill:rgb(148,30,29);fill-rule:nonzero;"/>
            <path d="M170.31,279.783L177.652,279.783L177.652,271.96L170.31,271.96L170.31,279.783Z" style="fill:rgb(148,30,29);fill-rule:nonzero;"/>
            <path d="M137.626,276.013C137.626,278.423 137.598,278.763 136.549,278.904L136.322,279.018C136.124,279.188 136.181,279.755 136.351,279.84C137.145,279.783 138.278,279.755 139.299,279.755C140.263,279.755 140.745,279.783 141.51,279.84C141.708,279.755 141.765,279.188 141.567,279.018L141.397,278.904C140.376,278.706 140.319,278.423 140.319,276.013L140.319,258.041C140.319,257.049 140.376,256.596 140.745,256.029C141.141,255.405 142.077,254.866 143.154,254.866C145.053,254.866 145.79,256.255 145.79,258.155L145.79,263.144C145.79,265.553 145.762,265.837 144.713,266.035L144.656,266.148C144.458,266.318 144.515,266.885 144.713,266.97C145.479,266.914 146.641,266.885 147.661,266.885C148.625,266.885 148.937,266.914 149.787,266.97C149.986,266.885 150.042,266.318 149.844,266.148L149.731,266.035C148.71,265.865 148.653,265.553 148.653,263.144L148.653,257.389C148.653,255.15 146.924,253.052 144.571,253.052C143.154,253.052 141.822,253.903 140.631,254.753C140.433,254.753 140.319,254.583 140.319,254.384C140.319,254.101 140.319,253.591 140.376,252.825C140.319,252.655 140.178,252.599 140.064,252.599C139.526,253.081 137.286,253.959 136.634,254.214C136.493,254.328 136.493,254.696 136.606,254.838L136.861,255.036C137.626,255.632 137.626,256 137.626,257.304L137.626,276.013ZM152.253,263.144C152.253,265.553 152.225,265.893 151.205,266.035L151.006,266.148C150.808,266.318 150.864,266.885 151.063,266.97C151.97,266.914 152.452,266.885 153.472,266.885C154.464,266.885 155.201,266.914 156.052,266.97C156.25,266.885 156.307,266.262 156.109,266.148L156.052,266.035C155.031,265.865 154.975,265.553 154.975,263.144L154.975,257.531C154.975,256.369 155.06,256.199 155.57,255.688C156.08,255.207 156.789,254.781 157.753,254.781C159.567,254.781 160.417,256.227 160.417,258.353L160.417,263.144C160.417,265.553 160.389,265.837 159.368,266.035L159.142,266.148C158.943,266.318 159,266.885 159.198,266.97C159.964,266.914 160.814,266.885 161.806,266.885C162.798,266.885 163.365,266.914 164.386,266.97C164.584,266.885 164.641,266.318 164.443,266.148L164.216,266.035C163.195,265.893 163.139,265.553 163.139,263.144L163.139,257.559C163.139,255.235 161.551,253.052 158.887,253.052C157.441,253.052 156.109,253.874 155.088,254.81C155.003,254.725 154.975,254.47 154.975,254.158L154.975,247.156C154.975,245.682 155.031,244.01 155.06,243.017C155.003,242.876 154.89,242.819 154.776,242.819C153.756,243.443 151.828,243.953 151.12,244.208C150.978,244.321 150.978,244.775 151.12,244.888L151.403,245.087C152.225,245.682 152.253,245.88 152.253,247.865L152.253,263.144ZM183.066,276.013C183.066,278.423 183.038,278.706 181.989,278.904L181.819,279.018C181.621,279.188 181.677,279.755 181.876,279.84C182.67,279.783 183.435,279.755 184.455,279.755C185.419,279.755 186.185,279.783 187.12,279.84C187.318,279.755 187.347,279.188 187.177,279.018L186.837,278.904C185.816,278.763 185.759,278.423 185.759,276.013L185.759,257.389C185.759,255.093 184.03,253.052 181.791,253.052C180.459,253.052 179.098,253.818 177.964,254.753C177.709,254.951 177.369,255.235 177.255,255.036C176.462,253.647 175.073,253.052 173.655,253.052C172.295,253.052 170.991,253.874 169.913,254.753C169.715,254.753 169.602,254.583 169.602,254.384C169.602,254.101 169.602,253.591 169.658,252.825C169.602,252.655 169.46,252.599 169.347,252.599C168.78,253.081 166.569,253.959 165.917,254.214C165.775,254.328 165.775,254.696 165.888,254.838L166.143,255.036C166.909,255.632 166.909,256 166.909,257.304L166.909,263.144C166.909,265.553 166.88,265.865 165.832,266.035L165.661,266.148C165.463,266.318 165.52,266.885 165.718,266.97C166.597,266.914 167.107,266.885 168.099,266.885C169.091,266.885 170.027,266.914 170.764,266.97C170.962,266.885 171.019,266.318 170.821,266.148L170.679,266.035C169.658,265.837 169.602,265.553 169.602,263.144L169.602,257.956C169.602,256.907 169.743,256.454 170.027,256.057C170.452,255.462 171.246,254.866 172.38,254.866C174.137,254.866 174.988,256.057 174.988,258.296L174.988,263.144C174.988,265.553 174.959,265.837 173.91,266.035L173.74,266.148C173.542,266.318 173.599,266.885 173.797,266.97C174.591,266.914 175.64,266.885 176.632,266.885C177.624,266.885 178.106,266.914 178.956,266.97C179.126,266.885 179.183,266.318 178.984,266.148L178.758,266.035C177.737,265.865 177.681,265.553 177.681,263.144L177.681,258.041C177.681,256.851 177.766,256.539 178.106,256.029C178.503,255.433 179.381,254.866 180.43,254.866C182.216,254.866 183.066,256.029 183.066,258.296L183.066,276.013Z" style="fill:rgb(86,86,85);fill-rule:nonzero;"/>
        </g>
    </g>
</svg>
