<?xml version="1.0" encoding="UTF-8" standalone="no"?>
<!DOCTYPE svg PUBLIC "-//W3C//DTD SVG 1.1//EN" "http://www.w3.org/Graphics/SVG/1.1/DTD/svg11.dtd">
<svg width="100%" height="100%" viewBox="0 0 96 39" version="1.1" xmlns="http://www.w3.org/2000/svg" xmlns:xlink="http://www.w3.org/1999/xlink" xml:space="preserve" xmlns:serif="http://www.serif.com/" style="fill-rule:evenodd;clip-rule:evenodd;stroke-linejoin:round;stroke-miterlimit:2;">
    <g transform="matrix(0.687753,0,0,0.738364,0,0)">
        <rect id="ArtBoard2" x="0" y="0" width="139" height="52" style="fill:none;"/>
        <g id="ArtBoard21" serif:id="ArtBoard2">
            <g transform="matrix(1.27211,0,0,0.995128,0,-1.08184)">
                <g transform="matrix(1.14299,0,0,1.36098,-155.447,-329.357)">
                    <path d="M145.82,279.78L153.162,279.78L153.162,271.957L145.82,271.957L145.82,279.78" style="fill:rgb(148,30,29);fill-rule:nonzero;"/>
                    <path d="M158.06,279.78L165.401,279.78L165.401,271.957L158.06,271.957L158.06,279.78" style="fill:rgb(148,30,29);fill-rule:nonzero;"/>
                    <path d="M170.31,279.78L177.652,279.78L177.652,271.957L170.31,271.957L170.31,279.78" style="fill:rgb(148,30,29);fill-rule:nonzero;"/>
                </g>
                <g transform="matrix(1.14299,0,0,1.36098,-155.447,-329.357)">
                    <path d="M137.63,276.01C137.63,278.42 137.602,278.76 136.553,278.901L136.326,279.015C136.128,279.185 136.185,279.752 136.355,279.837C137.149,279.78 138.282,279.752 139.303,279.752C140.267,279.752 140.749,279.78 141.514,279.837C141.712,279.752 141.769,279.185 141.571,279.015L141.401,278.901C140.38,278.703 140.323,278.42 140.323,276.01L140.323,258.038C140.323,257.046 140.38,256.593 140.749,256.028C141.145,255.404 142.081,254.865 143.158,254.865C145.057,254.865 145.794,256.254 145.794,258.154L145.794,263.143C145.794,265.552 145.766,265.836 144.717,266.034L144.66,266.147C144.462,266.317 144.519,266.884 144.717,266.969C145.483,266.913 146.645,266.884 147.665,266.884C148.629,266.884 148.941,266.913 149.791,266.969C149.99,266.884 150.046,266.317 149.848,266.147L149.735,266.034C148.714,265.864 148.657,265.552 148.657,263.143L148.657,257.388C148.657,255.149 146.928,253.051 144.575,253.051C143.158,253.051 141.826,253.902 140.635,254.752C140.437,254.752 140.323,254.582 140.323,254.383C140.323,254.1 140.323,253.59 140.38,252.824C140.323,252.654 140.182,252.598 140.068,252.598C139.53,253.08 137.29,253.958 136.638,254.213C136.497,254.327 136.497,254.695 136.61,254.837L136.865,255.035C137.63,255.631 137.63,255.999 137.63,257.303L137.63,276.012M152.257,263.143C152.257,265.552 152.229,265.892 151.209,266.034L151.01,266.147C150.812,266.317 150.868,266.884 151.067,266.969C151.974,266.913 152.456,266.884 153.476,266.884C154.468,266.884 155.205,266.913 156.056,266.969C156.254,266.884 156.311,266.261 156.113,266.147L156.056,266.034C155.035,265.864 154.979,265.552 154.979,263.143L154.979,257.53C154.979,256.368 155.064,256.198 155.574,255.687C156.084,255.206 156.793,254.78 157.757,254.78C159.571,254.78 160.421,256.226 160.421,258.352L160.421,263.143C160.421,265.552 160.393,265.836 159.372,266.034L159.146,266.147C158.947,266.317 159.004,266.884 159.202,266.969C159.968,266.913 160.818,266.884 161.81,266.884C162.802,266.884 163.369,266.913 164.39,266.969C164.588,266.884 164.645,266.317 164.447,266.147L164.22,266.034C163.199,265.892 163.143,265.552 163.143,263.143L163.143,257.558C163.143,255.234 161.555,253.051 158.891,253.051C157.445,253.051 156.113,253.873 155.092,254.809C155.007,254.724 154.979,254.469 154.979,254.157L154.979,247.157C154.979,245.683 155.035,244.011 155.064,243.018C155.007,242.877 154.894,242.82 154.78,242.82C153.76,243.444 151.832,243.954 151.124,244.209C150.982,244.322 150.982,244.776 151.124,244.889L151.407,245.088C152.229,245.683 152.257,245.881 152.257,247.866L152.257,263.145M183.07,276.014C183.07,278.424 183.042,278.707 181.993,278.905L181.823,279.019C181.625,279.189 181.681,279.756 181.88,279.841C182.674,279.784 183.439,279.756 184.459,279.756C185.423,279.756 186.189,279.784 187.124,279.841C187.322,279.756 187.351,279.189 187.181,279.019L186.841,278.905C185.82,278.764 185.763,278.424 185.763,276.014L185.763,257.39C185.763,255.094 184.034,253.053 181.795,253.053C180.463,253.053 179.102,253.819 177.968,254.754C177.713,254.952 177.373,255.236 177.259,255.037C176.466,253.648 175.077,253.053 173.659,253.053C172.299,253.053 170.995,253.875 169.917,254.754C169.719,254.754 169.606,254.584 169.606,254.385C169.606,254.102 169.606,253.592 169.662,252.826C169.606,252.656 169.464,252.6 169.351,252.6C168.784,253.082 166.573,253.96 165.921,254.215C165.779,254.329 165.779,254.697 165.892,254.839L166.147,255.037C166.913,255.633 166.913,256.001 166.913,257.305L166.913,263.145C166.913,265.554 166.884,265.866 165.836,266.036L165.665,266.149C165.467,266.319 165.524,266.886 165.722,266.971C166.601,266.915 167.111,266.886 168.103,266.886C169.095,266.886 170.031,266.915 170.768,266.971C170.966,266.886 171.023,266.319 170.825,266.149L170.683,266.036C169.662,265.838 169.606,265.554 169.606,263.145L169.606,257.957C169.606,256.908 169.747,256.455 170.031,256.058C170.456,255.463 171.25,254.867 172.384,254.867C174.141,254.867 174.992,256.058 174.992,258.297L174.992,263.145C174.992,265.554 174.963,265.838 173.914,266.036L173.744,266.149C173.546,266.319 173.603,266.886 173.801,266.971C174.595,266.915 175.644,266.886 176.636,266.886C177.628,266.886 178.11,266.915 178.96,266.971C179.13,266.886 179.187,266.319 178.988,266.149L178.762,266.036C177.741,265.866 177.685,265.554 177.685,263.145L177.685,258.042C177.685,256.852 177.77,256.54 178.11,256.032C178.507,255.436 179.385,254.869 180.434,254.869C182.22,254.869 183.07,256.032 183.07,258.299L183.07,276.016" style="fill:rgb(86,86,85);fill-rule:nonzero;"/>
                </g>
            </g>
            <g transform="matrix(1.90997,0,0,1.82517,11.2144,-68.5605)">
                <text x="34px" y="54px" style="font-family:'OpenSans-Light', 'Open Sans', sans-serif;font-weight:300;font-size:11.846px;fill:rgb(148,30,29);">D<tspan x="42.518px 45.35px 51.698px 54.531px 58.652px 65.082px " y="54px 54px 54px 54px 54px 54px ">igital</tspan></text>
                <g transform="matrix(11.8458,0,0,11.8458,67.6739,65.8458)">
                </g>
                <text x="34px" y="65.846px" style="font-family:'OpenSans-Light', 'Open Sans', sans-serif;font-weight:300;font-size:11.846px;fill:rgb(148,30,29);">M<tspan x="44.457px 51.196px 58.483px 61.398px " y="65.846px 65.846px 65.846px 65.846px ">edia</tspan></text>
            </g>
        </g>
    </g>
</svg>
