<svg viewBox="0 0 129 38" xmlns="http://www.w3.org/2000/svg" fill-rule="evenodd" stroke-linejoin="round" clip-rule="evenodd" stroke-miterlimit="2"><g transform="translate(-136-242)" fill-rule="nonzero"><g fill="#941e1d"><path d="m145.82 279.78h7.342v-7.823h-7.342v7.823"/><path d="m158.06 279.78h7.341v-7.823h-7.341v7.823"/><path d="m170.31 279.78h7.342v-7.823h-7.342v7.823"/></g><path d="m137.63 276.01c0 2.41-.028 2.75-1.077 2.891l-.227.114c-.198.17-.141.737.029.822.794-.057 1.927-.085 2.948-.085.964 0 1.446.028 2.211.085.198-.085.255-.652.057-.822l-.17-.114c-1.021-.198-1.078-.481-1.078-2.891v-17.972c0-.992.057-1.445.426-2.01.396-.624 1.332-1.163 2.409-1.163 1.899 0 2.636 1.389 2.636 3.289v4.989c0 2.409-.028 2.693-1.077 2.891l-.057.113c-.198.17-.141.737.057.822.766-.056 1.928-.085 2.948-.085.964 0 1.276.029 2.126.085.199-.085.255-.652.057-.822l-.113-.113c-1.021-.17-1.078-.482-1.078-2.891v-5.755c0-2.239-1.729-4.337-4.082-4.337-1.417 0-2.749.851-3.94 1.701-.198 0-.312-.17-.312-.369 0-.283 0-.793.057-1.559-.057-.17-.198-.226-.312-.226-.538.482-2.778 1.36-3.43 1.615-.141.114-.141.482-.028.624l.255.198c.765.596.765.964.765 2.268v18.709m14.627-12.869c0 2.409-.028 2.749-1.048 2.891l-.199.113c-.198.17-.142.737.057.822.907-.056 1.389-.085 2.409-.085.992 0 1.729.029 2.58.085.198-.085.255-.708.057-.822l-.057-.113c-1.021-.17-1.077-.482-1.077-2.891v-5.613c0-1.162.085-1.332.595-1.843.51-.481 1.219-.907 2.183-.907 1.814 0 2.664 1.446 2.664 3.572v4.791c0 2.409-.028 2.693-1.049 2.891l-.226.113c-.199.17-.142.737.056.822.766-.056 1.616-.085 2.608-.085.992 0 1.559.029 2.58.085.198-.085.255-.652.057-.822l-.227-.113c-1.021-.142-1.077-.482-1.077-2.891v-5.585c0-2.324-1.588-4.507-4.252-4.507-1.446 0-2.778.822-3.799 1.758-.085-.085-.113-.34-.113-.652v-7c0-1.474.056-3.146.085-4.139-.057-.141-.17-.198-.284-.198-1.02.624-2.948 1.134-3.656 1.389-.142.113-.142.567 0 .68l.283.199c.822.595.85.793.85 2.778v15.279m30.813 12.869c0 2.41-.028 2.693-1.077 2.891l-.17.114c-.198.17-.142.737.057.822.794-.057 1.559-.085 2.579-.085.964 0 1.73.028 2.665.085.198-.085.227-.652.057-.822l-.34-.114c-1.021-.141-1.078-.481-1.078-2.891v-18.624c0-2.296-1.729-4.337-3.968-4.337-1.332 0-2.693.766-3.827 1.701-.255.198-.595.482-.709.283-.793-1.389-2.182-1.984-3.6-1.984-1.36 0-2.664.822-3.742 1.701-.198 0-.311-.17-.311-.369 0-.283 0-.793.056-1.559-.056-.17-.198-.226-.311-.226-.567.482-2.778 1.36-3.43 1.615-.142.114-.142.482-.029.624l.255.198c.766.596.766.964.766 2.268v5.84c0 2.409-.029 2.721-1.077 2.891l-.171.113c-.198.17-.141.737.057.822.879-.056 1.389-.085 2.381-.085.992 0 1.928.029 2.665.085.198-.085.255-.652.057-.822l-.142-.113c-1.021-.198-1.077-.482-1.077-2.891v-5.188c0-1.049.141-1.502.425-1.899.425-.595 1.219-1.191 2.353-1.191 1.757 0 2.608 1.191 2.608 3.43v4.848c0 2.409-.029 2.693-1.078 2.891l-.17.113c-.198.17-.141.737.057.822.794-.056 1.843-.085 2.835-.085.992 0 1.474.029 2.324.085.17-.085.227-.652.028-.822l-.226-.113c-1.021-.17-1.077-.482-1.077-2.891v-5.103c0-1.19.085-1.502.425-2.01.397-.596 1.275-1.163 2.324-1.163 1.786 0 2.636 1.163 2.636 3.43v17.717" fill="#565655"/><path d="m195.31 266.86v-3.912c0-.992-.368-1.786-1.587-1.786-.936 0-1.616.539-1.899 1.361h-.029c.057-.34.085-.879.085-1.247h-.793v5.584h.793v-2.693c0-1.304.681-2.296 1.644-2.296.766 0 .993.482.993 1.361v3.628h.793m5.471 0c-.028-.51-.028-1.134-.028-1.672v-2.07c0-1.19-.454-1.956-1.871-1.956-.709 0-1.389.17-1.899.397l.17.681c.453-.227 1.105-.397 1.616-.397.878 0 1.19.482 1.19 1.445v.284c-2.098 0-3.26.765-3.26 1.899 0 .907.624 1.474 1.474 1.474.907 0 1.588-.567 1.843-1.275h.028c-.057.34-.057.765-.057 1.19h.794m-.822-2.523c0 .964-.623 1.928-1.559 1.928-.539 0-.879-.397-.879-.907 0-.624.539-1.163 2.438-1.163v.142m5.414 2.495l-.085-.709c-.198.057-.453.085-.737.085-.623 0-.793-.255-.793-1.276v-3h1.559v-.652h-1.559v-2.098l-.794.227v1.871h-1.162v.652h1.162v3.373c0 1.162.312 1.644 1.361 1.644.34 0 .765-.057 1.048-.113m5.5.028v-5.584h-.794v2.664c0 1.333-.68 2.325-1.616 2.325-.765 0-.992-.51-.992-1.389v-3.6h-.822v3.883c0 .992.397 1.786 1.616 1.786.935 0 1.587-.538 1.899-1.361l.028.029c-.056.34-.113.879-.113 1.247h.794m4.422-5.698c-1.106-.113-1.673.709-1.871 1.531l-.028-.028c.085-.482.113-1.021.113-1.389h-.794v5.584h.822v-2.239c0-1.871.539-2.835 1.729-2.608l.029-.851m4.96 5.698c-.028-.51-.028-1.134-.028-1.672v-2.07c0-1.19-.453-1.956-1.871-1.956-.708 0-1.389.17-1.899.397l.17.681c.454-.227 1.106-.397 1.587-.397.908 0 1.219.482 1.219 1.445v.284c-2.097 0-3.259.765-3.259 1.899 0 .907.623 1.474 1.474 1.474.907 0 1.587-.567 1.842-1.275h.028c-.056.34-.056.765-.056 1.19h.793m-.822-2.523c0 .964-.652 1.928-1.559 1.928-.538 0-.878-.397-.878-.907 0-.624.538-1.163 2.437-1.163v.142m3.459 2.523v-8.221h-.822v8.221h.822m8.816 0v-3.912c0-.992-.397-1.786-1.616-1.786-.907 0-1.559.539-1.871 1.361l-.028-.028c.056-.284.085-.737.085-1.106v-2.75h-.794v8.221h.794v-2.693c0-1.304.68-2.296 1.615-2.296.766 0 .993.482.993 1.361v3.628h.822m2.806-7.398c0-.312-.255-.567-.567-.567-.312 0-.567.255-.567.567 0 .34.255.566.567.566.312 0 .567-.255.567-.566m-.17 7.398v-5.584h-.794v5.584h.794m4.875-1.672c0-1.928-2.607-1.134-2.607-2.467 0-.566.368-.907 1.162-.907.34 0 .737.085 1.049.17l.085-.708c-.312-.057-.737-.114-1.049-.114-1.361 0-2.069.709-2.069 1.644 0 1.985 2.607 1.134 2.607 2.495 0 .595-.538.935-1.275.935-.397 0-.851-.056-1.191-.198l-.113.765c.34.114.794.142 1.19.142 1.389 0 2.211-.765 2.211-1.757m4.338 1.644l-.085-.709c-.199.057-.454.085-.709.085-.624 0-.794-.255-.794-1.276v-3h1.559v-.652h-1.559v-2.098l-.822.227v1.871h-1.134v.652h1.134v3.373c0 1.162.312 1.644 1.389 1.644.34 0 .737-.057 1.021-.113m5.697-2.863c0-2.041-1.077-2.807-2.353-2.807-1.587 0-2.551 1.333-2.551 2.92 0 1.956.936 2.863 2.353 2.863 1.559 0 2.551-1.304 2.551-2.976m-.85.056c0 1.531-.737 2.211-1.588 2.211-1.048 0-1.615-.793-1.615-2.211 0-1.502.793-2.154 1.615-2.154 1.078 0 1.588.794 1.588 2.154m4.904-2.863c-1.134-.113-1.673.709-1.899 1.531l-.029-.028c.085-.482.142-1.021.142-1.389h-.794v5.584h.794v-2.239c0-1.871.567-2.835 1.729-2.608l.057-.851m5.613.114h-.879l-.936 2.834c-.226.624-.453 1.333-.538 1.673h-.029c-.113-.397-.226-.794-.396-1.304l-1.106-3.203h-.935l2.041 5.584-.227.652c-.454 1.191-.907 1.502-1.503 1.502-.198 0-.453-.056-.623-.085l-.085.737c.17.057.397.085.567.085 1.19 0 1.842-.623 2.437-2.352l2.212-6.123"/><path d="m198.6 279.87v-3.883c0-1.248-.595-1.814-1.587-1.814-1.077 0-1.644.793-1.842 1.332-.029-.425-.284-1.332-1.475-1.332-.878 0-1.587.538-1.87 1.36l-.029-.028c.057-.34.085-.879.085-1.247h-.793v5.612h.793v-2.664c0-1.361.737-2.353 1.588-2.353.822 0 .964.624.964 1.389v3.628h.793v-2.664c0-1.446.794-2.353 1.588-2.353.793 0 .963.567.963 1.417v3.6h.822m6.067 0v-5.612h-.794v2.693c0 1.332-.68 2.324-1.644 2.324-.765 0-.992-.51-.992-1.389v-3.628h-.794v3.911c0 .993.369 1.786 1.587 1.786.936 0 1.616-.538 1.9-1.36l.028.028c-.057.312-.085.879-.085 1.247h.794m4.875-1.672c0-1.928-2.579-1.134-2.579-2.466 0-.567.368-.907 1.134-.907.368 0 .737.085 1.049.17l.085-.709c-.312-.057-.709-.113-1.049-.113-1.361 0-2.041.708-2.041 1.644 0 1.984 2.579 1.105 2.579 2.494 0 .595-.538.936-1.275.936-.397 0-.851-.085-1.191-.199l-.085.766c.312.113.765.141 1.191.141 1.36 0 2.182-.765 2.182-1.757m5.556-1.758c0-1.219-.595-2.267-2.069-2.267-1.474 0-2.324 1.247-2.324 2.919 0 1.956.85 2.863 2.437 2.863.652 0 1.276-.141 1.786-.34l-.113-.68c-.482.198-1.021.312-1.531.312-1.19 0-1.814-.681-1.757-2.325h3.543c.028-.198.028-.368.028-.482m-.822-.113h-2.693c.114-.936.652-1.502 1.389-1.502.822 0 1.304.595 1.304 1.502m6.52 3.543v-5.612h-.822v2.693c0 1.332-.68 2.324-1.616 2.324-.765 0-.992-.51-.992-1.389v-3.628h-.794v3.911c0 .993.369 1.786 1.588 1.786.935 0 1.587-.538 1.899-1.36l.028.028c-.056.312-.085.879-.085 1.247h.794m9.355 0v-3.883c0-1.248-.596-1.814-1.588-1.814-1.077 0-1.644.793-1.842 1.332-.029-.425-.284-1.332-1.474-1.332-.879 0-1.588.538-1.871 1.36l-.029-.028c.057-.34.085-.879.085-1.247h-.793v5.612h.793v-2.664c0-1.361.709-2.353 1.588-2.353.822 0 .964.624.964 1.389v3.628h.793v-2.664c0-1.446.794-2.353 1.588-2.353.765 0 .963.567.963 1.417v3.6h.823m8.617-5.612h-.879l-1.275 3.713c-.085.284-.199.624-.284.935h-.028c-.085-.34-.17-.651-.284-.992l-1.247-3.656h-.907l2.01 5.612h.822l2.069-5.612m2.154-1.786c0-.34-.255-.567-.567-.567-.311 0-.538.255-.538.567 0 .312.227.567.538.567.312 0 .567-.255.567-.567m-.17 7.398v-5.612h-.793v5.612h.793m5.868-3.43c0-1.219-.595-2.267-2.069-2.267-1.474 0-2.325 1.247-2.325 2.919 0 1.956.851 2.863 2.438 2.863.652 0 1.276-.141 1.786-.34l-.142-.68c-.453.198-.992.312-1.502.312-1.191 0-1.814-.681-1.758-2.325h3.544c.028-.198.028-.368.028-.482m-.822-.113h-2.693c.113-.936.652-1.502 1.389-1.502.822 0 1.304.595 1.304 1.502m6.52 3.543v-3.912c0-.992-.369-1.785-1.588-1.785-.935 0-1.615.538-1.899 1.36l-.028-.028c.056-.34.085-.879.085-1.247h-.794v5.612h.794v-2.693c0-1.332.68-2.324 1.644-2.324.765 0 .992.51.992 1.389v3.628h.794m6.094 0v-3.912c0-.992-.397-1.785-1.615-1.785-.908 0-1.588.538-1.9 1.36l-.028-.028c.057-.34.085-.879.085-1.247h-.765v5.612h.793v-2.693c0-1.332.681-2.324 1.616-2.324.765 0 .992.51.992 1.389v3.628h.822m5.471 0c-.028-.51-.028-1.134-.028-1.701v-2.041c0-1.19-.454-1.955-1.871-1.955-.709 0-1.389.17-1.899.396l.17.681c.453-.227 1.105-.397 1.587-.397.907 0 1.219.453 1.219 1.446v.283c-2.097 0-3.26.737-3.26 1.899 0 .907.624 1.474 1.474 1.474.907 0 1.588-.567 1.843-1.275h.028c-.056.312-.056.765-.056 1.19h.793m-.822-2.551c0 .964-.652 1.956-1.559 1.956-.538 0-.879-.397-.879-.935 0-.596.539-1.134 2.438-1.134v.113"/></g></svg>