<svg viewBox="0 0 139 52" xmlns="http://www.w3.org/2000/svg" fill-rule="evenodd" clip-rule="evenodd" stroke-linejoin="round" stroke-miterlimit="2"><path fill="none" d="M0 0h139v52H0z"/><path d="M9.82 37.78h7.342v-7.823H9.82v7.823m12.24 0h7.341v-7.823H22.06v7.823m12.25 0h7.342v-7.823H34.31v7.823" fill="#941e1d" fill-rule="nonzero"/><path d="M1.63 34.01c0 2.41-.028 2.75-1.077 2.891l-.227.114c-.198.17-.141.737.029.822a45.507 45.507 0 0 1 2.948-.085c.964 0 1.446.028 2.211.085.198-.085.255-.652.057-.822l-.17-.114c-1.021-.198-1.078-.481-1.078-2.891V16.038c0-.992.057-1.445.426-2.01.396-.624 1.332-1.163 2.409-1.163 1.899 0 2.636 1.389 2.636 3.289v4.989c0 2.409-.028 2.693-1.077 2.891l-.057.113c-.198.17-.141.737.057.822a45.628 45.628 0 0 1 2.948-.085c.964 0 1.276.029 2.126.085.199-.085.255-.652.057-.822l-.113-.113c-1.021-.17-1.078-.482-1.078-2.891v-5.755c0-2.239-1.729-4.337-4.082-4.337-1.417 0-2.749.851-3.94 1.701-.198 0-.312-.17-.312-.369 0-.283 0-.793.057-1.559a.319.319 0 0 0-.312-.226c-.538.482-2.778 1.36-3.43 1.615-.141.114-.141.482-.028.624l.255.198c.765.596.765.964.765 2.268v18.709m14.627-12.869c0 2.409-.028 2.749-1.048 2.891l-.199.113c-.198.17-.142.737.057.822a32.28 32.28 0 0 1 2.409-.085c.992 0 1.729.029 2.58.085.198-.085.255-.708.057-.822l-.057-.113c-1.021-.17-1.077-.482-1.077-2.891V15.53c0-1.162.085-1.332.595-1.843.51-.481 1.219-.907 2.183-.907 1.814 0 2.664 1.446 2.664 3.572v4.791c0 2.409-.028 2.693-1.049 2.891l-.226.113c-.199.17-.142.737.056.822a35.7 35.7 0 0 1 2.608-.085c.992 0 1.559.029 2.58.085.198-.085.255-.652.057-.822l-.227-.113c-1.021-.142-1.077-.482-1.077-2.891v-5.585c0-2.324-1.588-4.507-4.252-4.507-1.446 0-2.778.822-3.799 1.758-.085-.085-.113-.34-.113-.652v-7c0-1.474.056-3.146.085-4.139A.296.296 0 0 0 18.78.82c-1.02.624-2.948 1.134-3.656 1.389-.142.113-.142.567 0 .68l.283.199c.822.595.85.793.85 2.778v15.279M47.07 34.014c0 2.41-.028 2.693-1.077 2.891l-.17.114c-.198.17-.142.737.057.822a34.323 34.323 0 0 1 2.579-.085c.964 0 1.73.028 2.665.085.198-.085.227-.652.057-.822l-.34-.114c-1.021-.141-1.078-.481-1.078-2.891V15.39c0-2.296-1.729-4.337-3.968-4.337-1.332 0-2.693.766-3.827 1.701-.255.198-.595.482-.709.283-.793-1.389-2.182-1.984-3.6-1.984-1.36 0-2.664.822-3.742 1.701-.198 0-.311-.17-.311-.369 0-.283 0-.793.056-1.559a.318.318 0 0 0-.311-.226c-.567.482-2.778 1.36-3.43 1.615-.142.114-.142.482-.029.624l.255.198c.766.596.766.964.766 2.268v5.84c0 2.409-.029 2.721-1.077 2.891l-.171.113c-.198.17-.141.737.057.822a31.51 31.51 0 0 1 2.381-.085c.992 0 1.928.029 2.665.085.198-.085.255-.652.057-.822l-.142-.113c-1.021-.198-1.077-.482-1.077-2.891v-5.188c0-1.049.141-1.502.425-1.899a2.858 2.858 0 0 1 2.353-1.191c1.757 0 2.608 1.191 2.608 3.43v4.848c0 2.409-.029 2.693-1.078 2.891l-.17.113c-.198.17-.141.737.057.822a43.209 43.209 0 0 1 2.835-.085c.992 0 1.474.029 2.324.085.17-.085.227-.652.028-.822l-.226-.113c-1.021-.17-1.077-.482-1.077-2.891v-5.103c0-1.19.085-1.502.425-2.01.397-.596 1.275-1.163 2.324-1.163 1.786 0 2.636 1.163 2.636 3.43v17.717" fill="#565655" fill-rule="nonzero"/><path d="M59.54 25v-3.912c0-.992-.397-1.786-1.701-1.786-.964 0-1.672.539-1.984 1.361l-.028-.029c.056-.34.085-.878.085-1.219h-.822V25h.85v-2.693c0-1.332.709-2.325 1.701-2.325.794 0 1.049.511 1.049 1.389V25h.85m79.17-1.588v-.17c-.114-1.786-2.75-1.077-2.75-2.381 0-.567.425-.907 1.247-.907.369 0 .794.085 1.163.199v-.738a7.042 7.042 0 0 0-1.078-.113c-1.417 0-2.182.709-2.182 1.644 0 1.984 2.721 1.134 2.721 2.495 0 .595-.567.935-1.361.935-.453 0-.907-.085-1.247-.17l-.028.765c.34.086.765.114 1.162.114 1.417 0 2.296-.709 2.353-1.673M65.26 25v-3.884c0-1.049-.453-1.814-1.984-1.814-.766 0-1.418.17-1.928.425l.057.737a3.55 3.55 0 0 1 1.729-.482c.964 0 1.276.454 1.276 1.304v.454c-2.183 0-3.402.822-3.402 1.984 0 .907.624 1.361 1.531 1.361.935 0 1.672-.567 1.927-1.276h.029c-.057.34-.057.766-.057 1.191h.822m-.85-2.551c0 .992-.652 1.956-1.644 1.956-.567 0-.936-.312-.936-.823 0-.538.454-1.218 2.58-1.218v.085m5.697 2.522v-.737a3.32 3.32 0 0 1-.793.114c-.681 0-.851-.255-.851-1.276v-3.01h1.644v-.652h-1.644v-2.097l-.85.227v1.87h-1.191v.652h1.191v3.374c0 1.134.34 1.644 1.474 1.644.34 0 .737-.057 1.02-.114m5.868.029V19.41h-.85v2.665c0 1.332-.709 2.325-1.701 2.325-.822 0-1.049-.511-1.049-1.389V19.41h-.85v3.884c0 .992.397 1.814 1.672 1.814.992 0 1.701-.567 2.01-1.36h.028a8.86 8.86 0 0 0-.085 1.247h.822m4.649-5.698c-1.162-.142-1.757.709-1.984 1.502.085-.481.113-1.02.113-1.389h-.822v5.585h.851v-2.24c0-1.899.566-2.834 1.814-2.636l.028-.822m5.783 5.698v-3.912c0-.992-.397-1.786-1.673-1.786-.963 0-1.672.51-1.984 1.332h-.028a6.67 6.67 0 0 0 .085-1.133v-2.722h-.851v8.221h.851v-2.693c0-1.332.708-2.325 1.701-2.325.822 0 1.048.511 1.048 1.389v3.629h.851m2.948-7.172c0-.34-.255-.595-.567-.595a.581.581 0 0 0-.595.595c0 .312.255.567.595.567a.568.568 0 0 0 .567-.567m-.17 1.587h-.851v5.585h.851V19.41m5.131 3.912c0-1.899-2.722-1.134-2.722-2.466 0-.567.397-.907 1.219-.907.397 0 .794.085 1.162.199l.029-.738a7.033 7.033 0 0 0-1.106-.113c-1.417 0-2.154.709-2.154 1.644 0 1.984 2.721 1.134 2.721 2.495 0 .595-.567.935-1.389.935-.425 0-.879-.085-1.247-.17l-.028.765c.34.086.765.114 1.19.114 1.474 0 2.325-.766 2.325-1.758m4.563 1.644v-.737a3.544 3.544 0 0 1-.793.114c-.681 0-.851-.255-.851-1.276v-3.01h1.644v-.652h-1.644v-2.097l-.85.227v1.87h-1.219v.652h1.219v3.374c0 1.134.34 1.644 1.446 1.644a5.9 5.9 0 0 0 1.048-.114m6.04-2.863c0-2.041-1.105-2.806-2.466-2.806-1.672 0-2.664 1.332-2.664 2.92 0 1.956.963 2.863 2.466 2.863 1.644 0 2.664-1.332 2.664-2.977m-.878.057c0 1.531-.794 2.211-1.673 2.211-1.077 0-1.701-.794-1.701-2.211 0-1.502.822-2.154 1.701-2.154 1.134 0 1.673.793 1.673 2.154m5.159-2.863c-1.163-.142-1.758.709-1.985 1.502.057-.481.114-1.02.114-1.389h-.822v5.585h.822v-2.24c0-1.899.595-2.834 1.842-2.636l.029-.822m2.352-1.474a.598.598 0 0 0-.595-.595.581.581 0 0 0-.595.595c0 .312.255.567.595.567.312 0 .595-.255.595-.567m-.17 1.587h-.85v5.585h.85v-5.585m5.131 3.912c0-1.899-2.749-1.134-2.749-2.466 0-.567.425-.907 1.247-.907.368 0 .765.085 1.162.199v-.738a7.029 7.029 0 0 0-1.077-.113c-1.418 0-2.183.709-2.183 1.644 0 1.984 2.721 1.134 2.721 2.495 0 .595-.567.935-1.389.935-.425 0-.878-.085-1.247-.17v.765c.34.086.766.114 1.162.114 1.474 0 2.353-.766 2.353-1.758m5.301 1.418-.085-.709c-.369.17-.907.312-1.389.312-1.361 0-1.729-.964-1.729-2.098 0-1.36.595-2.239 1.814-2.239.482 0 .907.085 1.276.255l.085-.765a4.812 4.812 0 0 0-1.304-.171c-1.814 0-2.75 1.219-2.75 3.062 0 2.126 1.162 2.665 2.41 2.665.708 0 1.304-.142 1.672-.312m5.839.255v-3.912c0-.992-.396-1.786-1.672-1.786-.992 0-1.672.51-2.01 1.332.057-.283.085-.737.085-1.133v-2.722h-.85v8.221h.85v-2.693c0-1.332.709-2.325 1.701-2.325.822 0 1.049.511 1.049 1.389v3.629h.85m6.208-3.402c0-1.219-.652-2.296-2.182-2.296-1.559 0-2.466 1.247-2.466 2.92 0 1.956.907 2.863 2.579 2.863.709 0 1.332-.114 1.843-.34l-.057-.709c-.425.227-1.049.369-1.644.369-1.247 0-1.899-.709-1.843-2.382h3.742c.028-.17.028-.311.028-.425m-.878-.198h-2.835c.113-.879.68-1.446 1.474-1.446.85 0 1.361.567 1.361 1.446M62.97 37.84v-3.884c0-1.275-.595-1.814-1.644-1.814a2.068 2.068 0 0 0-1.956 1.333c0-.426-.284-1.333-1.559-1.333-.907 0-1.644.539-1.956 1.361l-.028-.028c.056-.341.085-.879.085-1.219h-.822v5.584h.85v-2.665c0-1.389.737-2.352 1.672-2.352.851 0 .993.623.993 1.389v3.628h.85v-2.665c0-1.445.822-2.352 1.672-2.352.794 0 1.021.566 1.021 1.389v3.628h.822m6.378 0v-5.584h-.822v2.664c0 1.333-.709 2.325-1.729 2.325-.794 0-1.049-.511-1.049-1.389v-3.6h-.822v3.883c0 .992.397 1.814 1.672 1.814.964 0 1.673-.567 1.985-1.36h.028a8.86 8.86 0 0 0-.085 1.247h.822m5.188-1.673c0-1.899-2.75-1.133-2.75-2.466 0-.567.425-.907 1.247-.907.369 0 .765.085 1.162.199v-.737a6.908 6.908 0 0 0-1.077-.114c-1.417 0-2.183.709-2.183 1.644 0 1.985 2.722 1.134 2.722 2.495 0 .595-.567.935-1.389.935-.425 0-.879-.056-1.248-.17v.766c.341.085.766.113 1.163.113 1.474 0 2.353-.765 2.353-1.758m5.839-1.729c0-1.219-.652-2.296-2.183-2.296-1.559 0-2.438 1.247-2.438 2.92 0 1.956.879 2.863 2.58 2.863.68 0 1.332-.113 1.843-.34l-.086-.709c-.425.227-1.02.369-1.615.369-1.248 0-1.9-.709-1.843-2.381h3.714c.028-.171.028-.312.028-.426m-.879-.198h-2.834c.141-.879.708-1.446 1.474-1.446.878 0 1.389.567 1.36 1.446m6.86 3.6v-5.584h-.85v2.664c0 1.333-.709 2.325-1.701 2.325-.794 0-1.049-.511-1.049-1.389v-3.6h-.85v3.883c0 .992.397 1.814 1.7 1.814.964 0 1.673-.567 1.985-1.36h.028a8.86 8.86 0 0 0-.085 1.247h.822m9.865 0v-3.884c0-1.275-.624-1.814-1.673-1.814-1.134 0-1.729.794-1.927 1.333-.029-.426-.284-1.333-1.559-1.333-.936 0-1.673.539-1.985 1.361l-.028-.028c.085-.341.113-.879.113-1.219h-.85v5.584h.85v-2.665c0-1.389.766-2.352 1.673-2.352.85 0 1.02.623 1.02 1.389v3.628h.822v-2.665c0-1.445.823-2.352 1.673-2.352.822 0 1.02.566 1.02 1.389v3.628h.851m12.614-5.584h-.907l-.992 3.316c-.17.595-.284.936-.397 1.389-.113-.368-.198-.708-.425-1.389l-1.077-3.316h-.936l-1.077 3.316c-.142.454-.283.936-.397 1.361a13.355 13.355 0 0 0-.397-1.361l-.935-3.316h-.964l1.729 5.584h.992l1.021-3.288a20.1 20.1 0 0 0 .397-1.389h.028c.085.368.199.708.312 1.049l1.219 3.628h.992l1.814-5.584m2.325-1.588a.619.619 0 0 0-.596-.595c-.311 0-.567.283-.567.595a.57.57 0 0 0 .567.567c.312 0 .596-.255.596-.567m-.17 1.588h-.851v5.584h.851v-5.584m6.179 2.182c0-1.219-.623-2.296-2.183-2.296-1.53 0-2.437 1.247-2.437 2.92 0 1.956.907 2.863 2.579 2.863.709 0 1.332-.113 1.843-.34l-.085-.709c-.397.227-1.021.369-1.616.369-1.247 0-1.899-.709-1.843-2.381h3.714c.028-.171.028-.312.028-.426m-.879-.198h-2.834c.141-.879.708-1.446 1.502-1.446.85 0 1.361.567 1.332 1.446m6.917 3.6v-3.912c0-.992-.397-1.786-1.672-1.786-.993 0-1.701.539-2.01 1.361l-.028-.028c.056-.341.085-.879.085-1.219h-.822v5.584h.85v-2.693c0-1.332.709-2.324 1.701-2.324.822 0 1.049.51 1.049 1.389v3.628h.85" fill-rule="nonzero"/><path d="M15.014 41.264c-1.31 0-2.34.42-3.093 1.257-.752.838-1.128 1.985-1.128 3.442 0 1.49.355 2.648 1.064 3.472.71.824 1.724 1.236 3.043 1.236.876 0 1.68-.113 2.413-.337v.644c-.69.242-1.551.363-2.585.363-1.466 0-2.62-.473-3.464-1.421C10.42 48.973 10 47.649 10 45.95c0-1.063.2-1.998.603-2.808a4.366 4.366 0 0 1 1.736-1.874c.754-.442 1.632-.661 2.632-.661 1.019 0 1.93.19 2.736.572l-.294.657a5.289 5.289 0 0 0-2.399-.572zm10.871 6.042c0 1.267-.307 2.255-.922 2.967-.614.712-1.462 1.068-2.542 1.068-.682 0-1.281-.163-1.8-.492-.52-.328-.917-.8-1.193-1.414-.276-.615-.414-1.324-.414-2.129 0-1.266.307-2.254.921-2.96.615-.708 1.457-1.061 2.528-1.061 1.067 0 1.903.358 2.51 1.075.608.717.912 1.698.912 2.946zm-6.129 0c0 1.067.235 1.898.703 2.497.47.597 1.133.896 1.99.896s1.52-.3 1.989-.896c.47-.599.703-1.43.703-2.497 0-1.071-.236-1.902-.71-2.492-.474-.59-1.139-.887-1.997-.887-.857 0-1.517.295-1.982.883-.463.587-.696 1.42-.696 2.496zm8.278-7.221h.707v11.113h-.707zm3.306 0h.708v11.113h-.707zm6.443 11.256c-1.129 0-2.008-.347-2.639-1.042-.63-.695-.946-1.669-.946-2.922 0-1.237.305-2.23.914-2.974.61-.745 1.431-1.118 2.464-1.118.914 0 1.636.32 2.165.957.527.639.792 1.505.792 2.6v.572H34.94c.01 1.066.259 1.88.748 2.442.487.562 1.186.843 2.095.843.444 0 .833-.03 1.168-.093.336-.062.76-.195 1.275-.4v.643a5.65 5.65 0 0 1-1.214.388c-.372.07-.782.104-1.229.104zm-.207-7.427c-.747 0-1.347.246-1.8.739-.452.492-.716 1.203-.793 2.132h4.8c0-.9-.195-1.603-.586-2.11-.39-.507-.93-.761-1.621-.761zm8.2 7.427c-1.11 0-1.979-.35-2.608-1.05-.627-.7-.942-1.676-.942-2.927 0-1.286.325-2.287.979-3.004.652-.717 1.544-1.075 2.678-1.075a5.39 5.39 0 0 1 1.928.35l-.192.629c-.672-.224-1.256-.337-1.75-.337-.953 0-1.674.295-2.164.883-.492.587-.737 1.435-.737 2.539 0 1.047.245 1.867.737 2.461.49.592 1.176.889 2.056.889a5.06 5.06 0 0 0 1.965-.378v.657c-.496.242-1.146.363-1.95.363zm5.899-.628c.448 0 .838-.038 1.172-.114v.571a3.738 3.738 0 0 1-1.186.171c-.685 0-1.192-.183-1.518-.55-.327-.367-.489-.942-.489-1.728v-5.014h-1.15v-.414l1.15-.322.357-1.756h.364v1.878h2.278v.614h-2.278v4.914c0 .596.104 1.036.314 1.321.21.287.539.43.986.43zm3.557.485h-.707v-7.763h.707v7.763zm-.807-9.92c0-.456.15-.686.45-.686.147 0 .263.06.346.18.083.118.124.287.124.507 0 .213-.041.382-.124.507a.396.396 0 0 1-.346.185c-.3 0-.45-.232-.45-.692zm9.827 6.028c0 1.267-.307 2.255-.921 2.967-.615.712-1.462 1.068-2.543 1.068-.68 0-1.28-.163-1.8-.492-.518-.328-.916-.8-1.192-1.414-.276-.615-.415-1.324-.415-2.129 0-1.266.307-2.254.922-2.96.614-.708 1.457-1.061 2.528-1.061 1.066 0 1.904.358 2.51 1.075.608.717.911 1.698.911 2.946zm-6.127 0c0 1.067.234 1.898.703 2.497.47.597 1.132.896 1.99.896.856 0 1.52-.3 1.989-.896.468-.599.703-1.43.703-2.497 0-1.071-.238-1.902-.71-2.492-.475-.59-1.14-.887-1.997-.887-.857 0-1.518.295-1.982.883-.465.587-.696 1.42-.696 2.496zm13.691 3.892v-5.035c0-.78-.165-1.348-.493-1.703-.329-.355-.838-.533-1.528-.533-.929 0-1.608.236-2.04.705-.43.468-.646 1.229-.646 2.282v4.284h-.707v-7.763h.6l.136 1.064h.042c.506-.81 1.403-1.214 2.693-1.214 1.762 0 2.642.945 2.642 2.835v5.078h-.7zm15.12-5.32c0 1.751-.459 3.076-1.378 3.975-.919.897-2.27 1.345-4.05 1.345h-2.5V40.757h2.821c1.667 0 2.934.435 3.803 1.307.87.871 1.304 2.143 1.304 3.814zm-.793.028c0-1.495-.379-2.62-1.138-3.374-.76-.755-1.876-1.133-3.347-1.133h-1.922v9.157h1.729c3.12 0 4.678-1.55 4.678-4.65zm7.728 5.292-.179-1.228h-.056c-.391.5-.792.854-1.204 1.061-.412.206-.899.31-1.46.31-.762 0-1.355-.195-1.779-.585-.424-.39-.635-.931-.635-1.621 0-.757.314-1.346.946-1.764.631-.42 1.544-.641 2.739-.664l1.478-.043v-.514c0-.74-.15-1.296-.45-1.672-.3-.376-.783-.564-1.45-.564-.72 0-1.464.2-2.235.6l-.264-.615c.852-.4 1.695-.6 2.528-.6.852 0 1.489.221 1.91.665.422.442.633 1.132.633 2.07v5.164h-.522zm-2.857-.5c.829 0 1.482-.236 1.961-.71.478-.474.717-1.132.717-1.975v-.764l-1.357.057c-1.09.053-1.867.222-2.331.511-.465.288-.696.736-.696 1.346 0 .486.148.863.446 1.132.297.27.718.404 1.26.404zm7.943.015c.447 0 .837-.038 1.171-.114v.571a3.729 3.729 0 0 1-1.186.171c-.685 0-1.19-.183-1.517-.55-.327-.367-.49-.942-.49-1.728v-5.014h-1.15v-.414l1.15-.322.358-1.756h.363v1.878h2.28v.614h-2.28v4.914c0 .596.105 1.036.315 1.321.21.287.538.43.986.43zm7.563.485-.179-1.228h-.056c-.391.5-.792.854-1.204 1.061-.412.206-.899.31-1.46.31-.762 0-1.355-.195-1.779-.585-.424-.39-.635-.931-.635-1.621 0-.757.314-1.346.946-1.764.63-.42 1.543-.641 2.739-.664l1.478-.043v-.514c0-.74-.15-1.296-.45-1.672-.3-.376-.783-.564-1.45-.564-.72 0-1.464.2-2.236.6l-.264-.615c.853-.4 1.695-.6 2.53-.6.851 0 1.488.221 1.91.665.421.442.632 1.132.632 2.07v5.164h-.522zm-2.857-.5c.829 0 1.482-.236 1.961-.71.478-.474.717-1.132.717-1.975v-.764l-1.357.057c-1.09.053-1.867.222-2.331.511-.465.288-.696.736-.696 1.346 0 .486.148.863.446 1.132.297.27.718.404 1.26.404zm9.171-7.413c1.085 0 1.903.341 2.453 1.025.55.683.825 1.682.825 2.996 0 1.29-.289 2.286-.868 2.985-.578.7-1.39 1.05-2.439 1.05-.552 0-1.05-.113-1.492-.343a2.605 2.605 0 0 1-1.05-.971h-.065l-.2 1.171h-.443V40.085h.707v2.793c0 .42-.01.804-.028 1.157l-.022.607h.05c.295-.466.651-.81 1.068-1.028.417-.22.918-.329 1.504-.329zm-.014.642c-.914 0-1.569.262-1.964.787-.396.524-.594 1.388-.594 2.592v.121c0 1.171.206 2.012.618 2.522.412.51 1.054.764 1.925.764.847 0 1.486-.296 1.914-.89.429-.592.643-1.436.643-2.531 0-2.243-.848-3.365-2.542-3.365zm10.156 7.271-.18-1.228h-.055c-.392.5-.793.854-1.205 1.061-.412.206-.898.31-1.46.31-.762 0-1.354-.195-1.778-.585-.425-.39-.635-.931-.635-1.621 0-.757.314-1.346.945-1.764.63-.42 1.544-.641 2.74-.664l1.478-.043v-.514c0-.74-.15-1.296-.45-1.672-.3-.376-.784-.564-1.45-.564-.72 0-1.464.2-2.236.6l-.264-.615c.853-.4 1.695-.6 2.529-.6.852 0 1.488.221 1.91.665.422.442.633 1.132.633 2.07v5.164h-.522zm-2.857-.5c.829 0 1.482-.236 1.961-.71.478-.474.717-1.132.717-1.975v-.764l-1.357.057c-1.09.053-1.867.222-2.332.511-.464.288-.696.736-.696 1.346 0 .486.149.863.446 1.132.298.27.718.404 1.26.404zm10.706-1.521c0 .695-.264 1.23-.793 1.603-.529.374-1.278.561-2.25.561-1.037 0-1.861-.158-2.47-.478V50.1c.78.39 1.604.585 2.47.585.767 0 1.35-.127 1.747-.382.397-.254.596-.593.596-1.017 0-.39-.158-.72-.475-.987-.316-.265-.837-.527-1.56-.785-.777-.281-1.322-.522-1.636-.725a2.26 2.26 0 0 1-.711-.685c-.159-.255-.239-.565-.239-.932 0-.582.244-1.041.733-1.379.487-.338 1.17-.507 2.045-.507a6.12 6.12 0 0 1 2.385.472l-.263.642c-.762-.314-1.469-.472-2.122-.472-.633 0-1.135.105-1.507.315-.371.21-.557.5-.557.871 0 .405.144.73.433.972.288.242.85.514 1.688.814.701.252 1.21.48 1.529.682.32.202.558.432.718.69.16.257.239.559.239.906zm5.135 2.164c-1.129 0-2.008-.347-2.639-1.042-.63-.695-.946-1.669-.946-2.922 0-1.237.305-2.23.914-2.974.61-.745 1.431-1.118 2.464-1.118.914 0 1.636.32 2.165.957.528.639.792 1.505.792 2.6v.572h-5.592c.01 1.066.258 1.88.747 2.442.487.562 1.186.843 2.095.843.444 0 .833-.03 1.168-.093.336-.062.76-.195 1.275-.4v.643c-.438.19-.842.32-1.214.388-.372.07-.782.104-1.229.104zm-.207-7.427c-.747 0-1.347.246-1.8.739-.452.492-.716 1.203-.793 2.132h4.8c0-.9-.195-1.603-.586-2.11-.39-.507-.93-.761-1.621-.761z" fill="#941e1d" fill-rule="nonzero"/></svg>