<svg viewBox="0 0 122 39" xmlns="http://www.w3.org/2000/svg" xml:space="preserve" fill-rule="evenodd" clip-rule="evenodd" stroke-linejoin="round" stroke-miterlimit="2"><path fill="none" d="M0 0h121.61v38.208H0z"/><path d="M9.82 37.78h7.342v-7.823H9.82v7.823m12.24 0h7.34v-7.823h-7.34v7.823m12.25 0h7.342v-7.823H34.31v7.823" fill="#941e1d" fill-rule="nonzero"/><path d="M1.63 34.01c0 2.41-.028 2.75-1.077 2.891l-.227.114c-.198.17-.141.737.029.822a45.507 45.507 0 0 1 2.948-.085c.964 0 1.446.028 2.21.085.199-.085.256-.652.058-.822l-.17-.114c-1.021-.198-1.078-.48-1.078-2.89V16.037c0-.992.057-1.445.426-2.01.396-.624 1.332-1.163 2.409-1.163 1.899 0 2.636 1.39 2.636 3.29v4.988c0 2.41-.028 2.693-1.077 2.891l-.057.113c-.198.17-.141.737.057.822a45.628 45.628 0 0 1 2.948-.085c.964 0 1.276.03 2.126.085.199-.085.255-.652.057-.822l-.113-.113c-1.021-.17-1.078-.482-1.078-2.89v-5.756c0-2.239-1.73-4.337-4.082-4.337-1.417 0-2.75.851-3.94 1.701-.198 0-.312-.17-.312-.369 0-.283 0-.793.057-1.559a.319.319 0 0 0-.312-.226c-.538.482-2.778 1.36-3.43 1.615-.141.114-.141.482-.028.624l.255.198c.765.596.765.964.765 2.268v18.71m14.627-12.87c0 2.41-.028 2.75-1.048 2.891l-.2.113c-.197.17-.141.737.058.822a32.28 32.28 0 0 1 2.409-.085c.992 0 1.729.03 2.58.085.198-.085.255-.708.057-.822l-.057-.113c-1.021-.17-1.077-.482-1.077-2.89V15.53c0-1.162.085-1.332.595-1.843.51-.48 1.219-.907 2.183-.907 1.814 0 2.664 1.446 2.664 3.572v4.791c0 2.41-.028 2.693-1.05 2.891l-.225.113c-.2.17-.142.737.056.822a35.7 35.7 0 0 1 2.608-.085c.992 0 1.559.03 2.58.085.198-.085.255-.652.057-.822l-.227-.113c-1.021-.142-1.077-.482-1.077-2.89v-5.586c0-2.324-1.588-4.507-4.252-4.507-1.446 0-2.778.822-3.8 1.758-.084-.085-.112-.34-.112-.652v-7c0-1.474.056-3.146.085-4.139A.296.296 0 0 0 18.78.82c-1.02.624-2.948 1.134-3.656 1.39-.142.112-.142.566 0 .68l.283.198c.822.595.85.793.85 2.778v15.28M47.07 34.013c0 2.41-.028 2.693-1.077 2.891l-.17.114c-.198.17-.142.737.057.822a34.323 34.323 0 0 1 2.579-.085c.963 0 1.73.028 2.664.085.198-.085.227-.652.057-.822l-.34-.114c-1.02-.14-1.078-.48-1.078-2.89V15.39c0-2.296-1.728-4.337-3.967-4.337-1.332 0-2.693.766-3.827 1.701-.255.198-.595.482-.71.283-.792-1.389-2.181-1.984-3.6-1.984-1.36 0-2.663.822-3.741 1.701-.198 0-.311-.17-.311-.369 0-.283 0-.793.056-1.559a.318.318 0 0 0-.311-.226c-.567.482-2.778 1.36-3.43 1.615-.142.114-.142.482-.03.624l.256.198c.766.596.766.964.766 2.268v5.84c0 2.41-.03 2.721-1.077 2.891l-.171.113c-.198.17-.141.737.057.822a31.51 31.51 0 0 1 2.38-.085c.993 0 1.929.03 2.666.085.198-.085.255-.652.057-.822l-.142-.113c-1.021-.198-1.077-.482-1.077-2.89v-5.189c0-1.049.14-1.502.425-1.899a2.858 2.858 0 0 1 2.353-1.19c1.757 0 2.608 1.19 2.608 3.43v4.847c0 2.41-.03 2.693-1.078 2.891l-.17.113c-.198.17-.141.737.057.822a43.208 43.208 0 0 1 2.835-.085c.992 0 1.474.03 2.324.085.17-.085.227-.652.028-.822l-.226-.113c-1.021-.17-1.077-.482-1.077-2.89v-5.104c0-1.19.085-1.502.425-2.01.397-.596 1.275-1.163 2.324-1.163 1.786 0 2.636 1.163 2.636 3.43v17.717" fill="#565655" fill-rule="nonzero"/><path d="M59.584 12.421c-1.405 0-2.509.45-3.317 1.348-.806.899-1.208 2.129-1.208 3.69 0 1.599.38 2.84 1.14 3.723.761.883 1.848 1.325 3.263 1.325.94 0 1.802-.12 2.587-.36v.69c-.74.26-1.663.389-2.772.389-1.572 0-2.81-.507-3.714-1.524-.903-1.016-1.355-2.435-1.355-4.257 0-1.14.215-2.142.647-3.01a4.682 4.682 0 0 1 1.86-2.01c.81-.473 1.75-.708 2.822-.708 1.093 0 2.07.204 2.934.613l-.315.704a5.67 5.67 0 0 0-2.572-.613ZM71.24 18.9c0 1.358-.33 2.418-.989 3.18-.658.764-1.568 1.146-2.726 1.146-.73 0-1.373-.175-1.93-.528-.557-.352-.983-.858-1.278-1.516-.297-.66-.445-1.42-.445-2.282 0-1.358.33-2.417.988-3.175.66-.758 1.562-1.137 2.711-1.137 1.144 0 2.04.384 2.69 1.153.653.768.979 1.82.979 3.159Zm-6.572 0c0 1.143.253 2.035.754 2.676.504.64 1.215.96 2.133.96.92 0 1.63-.32 2.133-.96.503-.641.754-1.533.754-2.676 0-1.149-.253-2.04-.762-2.673-.508-.632-1.22-.95-2.14-.95-.92 0-1.627.316-2.125.946-.497.63-.747 1.523-.747 2.677Zm8.876-7.742h.758v11.915h-.758zm3.546 0h.757v11.915h-.758zm6.906 12.068c-1.21 0-2.152-.373-2.83-1.118-.675-.745-1.013-1.789-1.013-3.132 0-1.327.326-2.39.98-3.19.653-.798 1.534-1.198 2.641-1.198.98 0 1.754.343 2.321 1.026.566.685.85 1.614.85 2.788v.613h-5.996c.01 1.143.277 2.016.8 2.619.524.602 1.272.903 2.247.903.476 0 .893-.033 1.252-.1.361-.066.816-.209 1.367-.428v.689a6.09 6.09 0 0 1-1.301.417 7.192 7.192 0 0 1-1.318.11Zm-.222-7.963c-.801 0-1.444.264-1.929.792-.485.528-.768 1.29-.85 2.285h5.146c0-.964-.21-1.718-.629-2.262-.418-.544-.997-.815-1.738-.815Zm8.792 7.963c-1.19 0-2.121-.375-2.796-1.126-.673-.75-1.01-1.797-1.01-3.139 0-1.379.349-2.452 1.05-3.22.699-.769 1.655-1.153 2.87-1.153.72 0 1.41.126 2.068.375l-.206.675c-.72-.24-1.346-.361-1.877-.361-1.02 0-1.794.316-2.32.946-.526.63-.789 1.538-.789 2.722 0 1.123.263 2.003.79 2.64.525.634 1.26.952 2.204.952.756 0 1.457-.135 2.107-.405v.704c-.532.26-1.229.39-2.091.39Zm6.325-.673c.48 0 .898-.04 1.256-.123v.613a4.018 4.018 0 0 1-1.271.183c-.735 0-1.279-.196-1.628-.59-.35-.393-.524-1.01-.524-1.853v-5.375h-1.233v-.445l1.233-.345.383-1.883h.39v2.014h2.442v.659h-2.442v5.268c0 .639.112 1.11.337 1.417.225.307.578.46 1.057.46Zm3.814.52h-.758v-8.324h.758v8.324Zm-.865-10.636c0-.49.16-.736.482-.736.158 0 .282.064.371.192.089.127.133.309.133.544 0 .229-.044.41-.133.544a.424.424 0 0 1-.371.198c-.322 0-.482-.248-.482-.742Zm10.536 6.463c0 1.358-.33 2.418-.988 3.18-.659.764-1.567 1.146-2.726 1.146-.73 0-1.372-.175-1.93-.528-.556-.352-.982-.858-1.279-1.516-.295-.66-.444-1.42-.444-2.282 0-1.358.33-2.417.988-3.175.659-.758 1.563-1.137 2.71-1.137 1.144 0 2.042.384 2.693 1.153.65.768.976 1.82.976 3.159Zm-6.57 0c0 1.143.251 2.035.754 2.676.503.64 1.214.96 2.133.96s1.63-.32 2.133-.96c.502-.641.754-1.533.754-2.676 0-1.149-.255-2.04-.762-2.673-.508-.632-1.222-.95-2.14-.95-.92 0-1.628.316-2.126.946-.497.63-.746 1.523-.746 2.677Zm14.68 4.173v-5.4c0-.836-.177-1.445-.528-1.825-.353-.38-.9-.571-1.64-.571-.995 0-1.723.252-2.186.755-.461.502-.693 1.318-.693 2.447v4.594h-.758v-8.324h.643l.146 1.14h.045c.543-.867 1.505-1.3 2.887-1.3 1.89 0 2.834 1.012 2.834 3.04v5.444h-.75ZM62.725 32.21c0 1.879-.492 3.3-1.477 4.262-.986.962-2.434 1.443-4.343 1.443h-2.68V26.72h3.025c1.787 0 3.146.467 4.078 1.401.931.935 1.397 2.298 1.397 4.09Zm-.85.03c0-1.602-.406-2.808-1.22-3.617-.816-.809-2.012-1.214-3.59-1.214h-2.059v9.817h1.853c3.345 0 5.016-1.662 5.016-4.985Zm8.286 5.675-.192-1.317h-.06c-.42.537-.85.916-1.291 1.138-.442.221-.964.332-1.566.332-.817 0-1.452-.209-1.907-.627-.455-.418-.68-.999-.68-1.738 0-.812.336-1.443 1.013-1.892.677-.45 1.656-.687 2.937-.712L70 33.053v-.551c0-.792-.16-1.39-.482-1.792-.321-.404-.84-.605-1.555-.605-.771 0-1.57.214-2.397.643l-.282-.659c.913-.428 1.816-.643 2.71-.643.914 0 1.596.237 2.048.713.452.474.678 1.214.678 2.22v5.536h-.559Zm-3.063-.536c.888 0 1.589-.253 2.102-.762.513-.508.769-1.214.769-2.117v-.82l-1.455.062c-1.168.056-2.002.238-2.5.548-.498.308-.746.79-.746 1.443 0 .521.16.925.478 1.214.32.289.77.432 1.352.432Zm8.516.016c.48 0 .897-.04 1.255-.123v.613a4.012 4.012 0 0 1-1.271.183c-.735 0-1.277-.196-1.627-.59-.35-.393-.524-1.01-.524-1.853V30.25h-1.234v-.444l1.234-.345.383-1.884h.389v2.014h2.444v.66h-2.444v5.267c0 .64.112 1.111.337 1.417.225.307.578.46 1.058.46Zm8.109.52-.192-1.317h-.06c-.42.537-.85.916-1.292 1.138-.441.221-.963.332-1.565.332-.817 0-1.452-.209-1.907-.627-.455-.418-.68-.999-.68-1.738 0-.812.336-1.443 1.013-1.892.676-.45 1.655-.687 2.937-.712l1.585-.046v-.551c0-.792-.16-1.39-.482-1.792-.322-.404-.84-.605-1.555-.605-.771 0-1.57.214-2.397.643l-.284-.659c.915-.428 1.818-.643 2.712-.643.914 0 1.596.237 2.048.713.452.474.678 1.214.678 2.22v5.536h-.56Zm-3.063-.536c.888 0 1.589-.253 2.102-.762.513-.508.769-1.214.769-2.117v-.82l-1.455.062c-1.168.056-2.002.238-2.5.548-.498.308-.746.79-.746 1.443 0 .521.16.925.478 1.214.32.289.77.432 1.352.432Zm9.833-7.949c1.163 0 2.04.367 2.63 1.1.589.732.884 1.803.884 3.212 0 1.383-.31 2.45-.93 3.2-.62.751-1.492 1.126-2.616 1.126a3.426 3.426 0 0 1-1.6-.367 2.793 2.793 0 0 1-1.126-1.042h-.07l-.213 1.256h-.475V26h.758v2.994c0 .45-.01.863-.03 1.24l-.023.651h.053c.316-.499.698-.868 1.145-1.101.447-.236.984-.353 1.613-.353Zm-.016.69c-.98 0-1.682.28-2.105.842-.425.562-.637 1.489-.637 2.78v.13c0 1.256.221 2.157.663 2.704.442.546 1.129.819 2.063.819.909 0 1.594-.318 2.052-.954.46-.635.69-1.54.69-2.715 0-2.404-.91-3.607-2.726-3.607Zm10.889 7.795-.192-1.317h-.06c-.42.537-.85.916-1.291 1.138-.442.221-.963.332-1.566.332-.817 0-1.452-.209-1.907-.627-.454-.418-.68-.999-.68-1.738 0-.812.337-1.443 1.014-1.892.675-.45 1.654-.687 2.936-.712l1.586-.046v-.551c0-.792-.161-1.39-.483-1.792-.321-.404-.84-.605-1.555-.605-.771 0-1.57.214-2.397.643l-.283-.659c.914-.428 1.818-.643 2.711-.643.914 0 1.596.237 2.048.713.453.474.679 1.214.679 2.22v5.536h-.56Zm-3.063-.536c.889 0 1.59-.253 2.103-.762.512-.508.768-1.214.768-2.117v-.82l-1.454.062c-1.169.056-2.003.238-2.5.548-.498.308-.747.79-.747 1.443 0 .521.16.925.479 1.214.318.289.77.432 1.35.432Zm11.479-1.631c0 .745-.283 1.319-.85 1.719-.567.401-1.37.601-2.412.601-1.113 0-1.996-.17-2.65-.512v-.82c.838.419 1.72.628 2.65.628.822 0 1.446-.136 1.872-.41.426-.273.64-.636.64-1.09 0-.419-.17-.772-.51-1.058-.339-.285-.897-.566-1.673-.842-.833-.302-1.417-.56-1.754-.777-.336-.217-.59-.462-.762-.735-.17-.273-.256-.606-.256-1 0-.623.261-1.116.785-1.478.523-.362 1.255-.543 2.193-.543.9 0 1.752.168 2.558.505l-.282.69c-.817-.338-1.575-.507-2.276-.507-.678 0-1.216.113-1.615.338-.399.224-.597.535-.597.934 0 .434.154.782.464 1.042.308.26.912.551 1.81.873.751.27 1.296.513 1.639.73.342.217.598.464.77.74.17.276.256.6.256.972Zm5.506 2.32c-1.21 0-2.153-.372-2.83-1.117-.676-.745-1.014-1.79-1.014-3.133 0-1.327.327-2.39.98-3.189.654-.798 1.534-1.198 2.641-1.198.98 0 1.754.342 2.322 1.026.565.684.849 1.614.849 2.787v.613h-5.996c.01 1.144.277 2.017.801 2.62.523.602 1.272.902 2.247.902.475 0 .892-.032 1.252-.099s.815-.21 1.367-.429v.69a6.09 6.09 0 0 1-1.302.416 7.192 7.192 0 0 1-1.317.111Zm-.223-7.963c-.8 0-1.444.264-1.929.792-.484.528-.768 1.29-.85 2.286h5.146c0-.965-.209-1.719-.628-2.262-.419-.544-.998-.816-1.739-.816Z" fill="#941e1d" fill-rule="nonzero"/></svg>